<svg width="12" height="16" viewBox="0 0 12 16" xmlns="http://www.w3.org/2000/svg">
<path d="M3.1875 5.5H8.78125L6 2.71875L3.1875 5.5ZM6.6875 1.3125L10.6875 5.3125C10.9688 5.59375 11.0625 6.03125 10.9062 6.40625C10.75 6.78125 10.375 7.03125 9.96875 7.03125H2C1.59375 7.03125 1.21875 6.78125 1.0625 6.40625C0.90625 6.03125 1 5.59375 1.28125 5.3125L5.28125 1.3125C5.65625 0.90625 6.3125 0.90625 6.6875 1.3125ZM3.1875 10.5L6 13.3125L8.78125 10.5H3.1875ZM6.6875 14.7188C6.3125 15.125 5.65625 15.125 5.28125 14.7188L1.28125 10.7188C1 10.4375 0.90625 10 1.0625 9.625C1.21875 9.25 1.59375 9 2 9H10C10.375 9 10.75 9.25 10.9062 9.625C11.0625 10 10.9688 10.4375 10.6875 10.7188L6.6875 14.7188Z" fill="#9CA3AF"/>
</svg>
