<svg width="195" height="33" viewBox="0 0 195 33" fill="none" xmlns="http://www.w3.org/2000/svg">
<path fill-rule="evenodd" clip-rule="evenodd" d="M172.926 28.5174V28.5175C172.926 29.6738 172.926 30.1186 172.57 30.6523C172.036 31.7198 170.613 32.6982 168.034 32.6982C165.988 32.6982 164.564 32.1645 163.764 31.0971L163.751 31.0761C163.316 30.38 163.141 30.101 163.141 28.3395V19.6221H166.521V28.0727C166.521 29.2291 166.877 30.0296 168.034 30.0296C169.19 30.0296 169.546 29.407 169.546 28.0727V19.6221H172.837V28.5174H172.926ZM180.13 32.5205V27.0944H177.462V32.5205H174.17V19.6223H177.462V24.3368H180.13V19.6223H183.422V32.5205H180.13ZM188.671 28.0728L190.983 32.5205H194.364V19.6223H191.25V23.6252C191.25 24.5147 191.25 25.7601 191.339 26.5606C191.072 25.6712 190.628 24.7817 190.272 24.0701L190.272 24.0699L187.959 19.6223H184.757V32.6095H187.87V28.9624C187.87 27.3612 187.781 26.2048 187.692 25.6711C187.959 26.4717 188.315 27.3612 188.671 28.0728Z" fill="#2A6EBB"/>
<path fill-rule="evenodd" clip-rule="evenodd" d="M153.374 22.5133L153.374 22.5133C153.292 22.9276 153.22 23.2958 153.356 23.9765C153.478 24.6276 153.75 24.9809 154.008 25.3173C154.314 25.7163 154.602 26.0916 154.602 26.912C155.047 26.2003 155.402 25.2218 155.402 24.1544C155.402 22.6422 154.78 21.3079 153.712 20.4183C155.402 21.4858 156.203 23.3538 155.758 25.2218C155.491 26.4672 154.869 27.5346 153.979 28.0684C153.534 28.3352 153.356 28.4242 152.912 28.5131V28.6021L153.09 28.691H153.178C153.89 28.2463 154.869 27.8904 155.847 27.7125C156.203 27.7125 156.915 27.5346 156.826 27.0009C156.737 26.823 156.737 26.6451 156.737 26.4672C156.671 26.3365 156.798 26.2538 156.905 26.1839C156.944 26.1586 156.98 26.135 157.003 26.1114C157.092 25.9335 157.003 25.8445 156.915 25.7556L156.915 25.7556V25.6666C157.092 25.6666 157.181 25.4887 157.181 25.3997C157.172 25.3809 157.162 25.361 157.151 25.3402C157.059 25.1652 156.933 24.9267 157.092 24.6881C157.181 24.5102 157.27 24.5102 157.448 24.5102C157.626 24.4213 157.715 24.2433 157.626 24.1544C157.448 23.932 157.293 23.7319 157.137 23.5317C156.981 23.3316 156.826 23.1314 156.648 22.909C156.571 22.7563 156.61 22.5871 156.65 22.4085C156.704 22.1713 156.762 21.9175 156.559 21.6637C155.58 20.5963 154.246 19.7957 152.467 19.5288L152.378 19.6178C152.467 20.0625 152.734 20.3294 153.001 20.5963C153.356 21.041 153.534 21.5747 153.445 22.1085C153.424 22.2547 153.399 22.3861 153.374 22.5133ZM156.914 30.2981C156.54 30.0737 156.229 30.1639 155.928 30.2511L155.928 30.2511C155.871 30.2676 155.814 30.284 155.758 30.2981C155.224 30.476 154.69 30.2981 154.245 30.0313C154.134 29.9423 154.034 29.8534 153.934 29.7644L153.934 29.7644C153.634 29.4976 153.334 29.2307 152.733 28.9638C152.084 28.761 151.657 28.8172 151.249 28.8708C150.763 28.9348 150.305 28.9951 149.531 28.608H149.442V28.697C149.798 29.4976 150.509 30.2092 151.399 30.8319C152.644 31.6324 154.156 31.7214 155.491 31.1877C153.712 32.0772 151.755 31.8993 150.331 30.565C149.353 29.6755 148.819 28.608 148.819 27.5406V27.5406C148.819 27.0958 148.819 26.8289 148.997 26.3842H148.908L148.73 26.4731V26.5621C148.73 27.7185 148.552 29.0528 148.019 30.2981C147.93 30.476 148.019 30.654 148.108 30.7429C148.215 30.8506 148.29 30.8605 148.372 30.8713C148.426 30.8783 148.482 30.8857 148.552 30.9208C148.73 31.0098 148.819 31.1877 148.819 31.3656L149.086 31.4545L149.175 31.6324L149.62 31.7214C149.65 31.7818 149.66 31.8626 149.67 31.9466C149.689 32.1101 149.71 32.2853 149.887 32.3441C150.021 32.3441 150.169 32.3186 150.324 32.2917L150.324 32.2917C150.579 32.2476 150.856 32.1998 151.132 32.2551C151.354 32.2996 151.532 32.4108 151.71 32.522C151.888 32.6332 152.066 32.7444 152.288 32.7888C152.555 32.8778 152.911 32.8778 153.178 32.8778C154.423 32.433 155.847 31.7214 156.914 30.2981ZM146.061 27.9045C145.972 28.2603 145.883 28.6161 145.438 28.883C144.815 27.1929 144.904 25.7696 145.527 24.4353C145.622 24.2447 145.871 24.0796 146.122 23.9127C146.34 23.7681 146.56 23.622 146.683 23.4568C147.013 22.929 147.099 22.7437 147.193 22.5381C147.226 22.4664 147.26 22.3923 147.306 22.3004C147.395 22.1225 147.662 22.1225 147.929 22.3004C148.107 22.4783 148.285 22.1225 148.285 22.0336C148.374 21.8557 148.64 21.8557 148.729 22.0336L148.818 21.9446C148.818 21.7667 148.996 21.5888 149.174 21.5888C149.263 21.6777 149.53 21.7667 149.619 21.5888C149.687 21.5208 149.729 21.4659 149.765 21.4189C149.823 21.3429 149.865 21.288 149.975 21.233C150.419 21.0551 150.864 21.4998 151.042 21.7667C151.665 22.5673 152.465 23.19 153.266 23.6347V23.7237V23.9905H153.177C152.859 23.6723 152.683 23.5675 152.331 23.358C152.289 23.3333 152.246 23.3071 152.199 23.2789C151.22 22.7452 150.064 22.6562 148.818 23.101C146.95 23.7237 145.794 25.3248 145.705 27.3708C145.883 25.9475 146.683 24.7022 148.018 23.9905C148.907 23.4568 149.886 23.19 150.775 23.2789V23.3679C150.06 23.7971 149.882 24.2263 149.692 24.683C149.527 25.078 149.355 25.4936 148.818 25.9475C148.355 26.2953 148.004 26.4164 147.669 26.5325C147.489 26.5945 147.314 26.6551 147.128 26.7481C146.594 26.926 146.15 27.3708 146.061 27.9045L146.061 27.9045Z" fill="#B7A66D"/>
<path fill-rule="evenodd" clip-rule="evenodd" d="M18.4137 14.0376V13.5928C18.7695 13.5928 19.0364 13.5928 19.2143 13.5039C19.3922 13.4149 19.5701 13.326 19.659 13.1481C19.748 12.9702 19.8369 12.7033 19.8369 12.4364C19.8369 12.2765 19.8549 12.0986 19.8747 11.9028L19.8747 11.9027C19.8989 11.6628 19.9259 11.396 19.9259 11.1021V9.85678C19.9259 9.14515 19.8369 8.61143 19.5701 8.16667C19.3032 7.7219 18.9474 7.54399 18.4137 7.54399C17.88 7.54399 17.3462 7.7219 16.9015 8.16667C16.4567 8.61143 16.1899 9.0562 16.1899 9.67888V11.0132V11.0132C16.1899 11.5469 16.1899 12.0806 16.2788 12.3475C16.2788 12.7033 16.3678 12.8812 16.4567 13.0591C16.5457 13.237 16.6346 13.326 16.8125 13.4149C16.9904 13.5039 17.1683 13.5039 17.5242 13.5039V13.9486H13.1654V13.5039C13.5212 13.5039 13.7881 13.5039 14.055 13.4149C14.2329 13.326 14.4108 13.237 14.4997 13.0591C14.5887 12.8812 14.6776 12.6143 14.7666 12.3475C14.7666 12.2419 14.7805 12.1085 14.7973 11.9472L14.7974 11.9472V11.9472C14.8231 11.7008 14.8555 11.3895 14.8555 11.0132V4.43062C14.8555 3.89689 14.8555 3.45213 14.7666 3.09631C14.7666 2.82945 14.6776 2.56259 14.4997 2.38468C14.4108 2.20678 14.2329 2.11782 14.055 2.02887C13.8771 1.93992 13.6102 1.93992 13.1654 1.93992V1.49515L16.1899 0.961426V8.16667C16.5457 7.7219 16.9015 7.36608 17.3462 7.09922C17.791 6.83236 18.3247 6.65445 18.8585 6.65445C19.748 6.65445 20.3707 6.92132 20.7265 7.54399C21.0823 8.07771 21.3492 8.87829 21.3492 9.85678V11.1911C21.3492 11.7248 21.3492 12.1696 21.4381 12.5254C21.4576 12.6034 21.4728 12.6728 21.4866 12.7356L21.4866 12.7356C21.5356 12.9592 21.5661 13.0981 21.705 13.237C21.7939 13.4149 21.9718 13.5039 22.1497 13.5928C22.3276 13.6818 22.5945 13.6818 23.0393 13.6818V14.1266H18.4137V14.0376ZM12.6314 4.15663H12.1866L12.0977 3.71186C11.9198 3.08919 11.7419 2.64442 11.475 2.46651C11.2082 2.2886 10.6744 2.1107 9.7849 2.1107H7.11629V11.095C7.11629 11.6287 7.11629 12.0735 7.20524 12.4293C7.2942 12.7851 7.38315 12.963 7.4721 13.1409C7.65001 13.3188 7.82792 13.4078 8.00583 13.4968C8.27268 13.5857 8.62849 13.5857 9.07325 13.5857H9.07327V14.0305H3.55814V13.5857H3.55816C4.00292 13.5857 4.35873 13.5857 4.62559 13.4968C4.89245 13.4078 5.07036 13.3188 5.15931 13.1409C5.33722 12.963 5.42617 12.6962 5.42617 12.4293C5.51512 12.0735 5.51512 11.7177 5.51512 11.095V11.095V2.1107H2.84652C1.95698 2.1107 1.42326 2.19965 1.1564 2.46651C0.889536 2.64442 0.711629 3.08919 0.533722 3.71186L0.444768 4.15663H0L0.177907 1.31012H12.4535L12.6314 4.15663ZM25.4403 12.6929C24.9956 12.1592 24.7287 11.5365 24.7287 10.647C24.7287 10.3801 24.7287 10.2022 24.9066 10.0243H29.799C29.888 9.75745 29.888 9.57954 29.888 9.31268C29.888 8.60105 29.6211 7.97838 29.0874 7.44465C28.4647 6.91093 27.8421 6.64407 27.0415 6.64407C26.5967 6.64407 26.152 6.73303 25.7072 6.91093C25.2624 7.08884 24.8177 7.3557 24.4618 7.71152C24.106 8.06733 23.7502 8.5121 23.5723 8.95686C23.3054 9.40163 23.2165 9.93535 23.2165 10.4691C23.2165 11.0028 23.3054 11.5365 23.4834 11.9813C23.6613 12.4261 23.9281 12.8708 24.2839 13.2266C24.5508 13.5824 24.9956 13.8493 25.4403 14.0272C25.8851 14.2051 26.4188 14.2941 26.9525 14.2941C27.4863 14.2941 28.1089 14.2051 28.6427 13.9383C29.2653 13.6714 29.7101 13.4045 30.0659 12.9598L29.7101 12.515C29.4432 12.7819 29.0874 13.0487 28.6427 13.2266C28.1979 13.4045 27.8421 13.4935 27.4863 13.4935C26.5967 13.4935 25.8851 13.2266 25.4403 12.6929ZM28.32 8.98477L28.32 8.98479C28.3021 9.04583 28.2868 9.09793 28.2868 9.13477H24.9956C25.0845 8.60105 25.3514 8.15628 25.7072 7.88942C26.063 7.62256 26.4188 7.44465 26.8636 7.44465C27.3973 7.44465 27.7531 7.53361 28.02 7.80047C28.2868 8.06733 28.3758 8.33419 28.3758 8.69C28.3758 8.79422 28.3453 8.89844 28.32 8.98477ZM43.053 2.2886C43.8536 3.00023 44.2094 3.80082 44.2094 4.86826C44.2094 5.9357 43.8536 6.73628 43.053 7.44791C42.2524 8.15954 41.1849 8.4264 39.8506 8.4264H38.0715V11.095C38.0715 11.6287 38.0716 12.0735 38.1606 12.4293C38.2495 12.6962 38.3385 12.963 38.4274 13.1409C38.4993 13.2846 38.687 13.3703 38.8504 13.4448L38.8504 13.4448C38.8893 13.4625 38.9268 13.4796 38.9611 13.4968C39.2279 13.5857 39.5837 13.5857 40.0285 13.5857V14.0305H34.5134V13.5857C34.9581 13.5857 35.314 13.5857 35.5808 13.4968C35.8477 13.4078 36.0256 13.3188 36.1145 13.1409C36.2035 12.963 36.2925 12.6962 36.3815 12.4293C36.4704 12.1627 36.4704 11.7186 36.4704 11.0969V11.095V4.24558V4.24394C36.4704 3.71095 36.4704 3.26673 36.3815 2.91128C36.2926 2.55582 36.2037 2.37791 36.1148 2.20018L36.1145 2.19965C36.0427 2.056 35.8549 1.97035 35.6916 1.89586C35.6526 1.8781 35.6151 1.86097 35.5808 1.84384C35.314 1.75488 34.9581 1.75488 34.5134 1.75488V1.31012H39.8506C41.1849 1.31012 42.2524 1.66593 43.053 2.2886ZM41.7187 6.91419C42.1635 6.38047 42.3413 5.75779 42.3413 4.86826C42.3413 4.06768 42.1635 3.35605 41.7187 2.82233C41.2739 2.2886 40.6513 2.02174 39.7617 2.02174H37.9827V7.62582H39.7617C40.6513 7.71477 41.2739 7.44791 41.7187 6.91419ZM50.7031 8.85484C50.97 8.85484 51.2369 8.76588 51.3258 8.58798C51.4148 8.41007 51.5037 8.14321 51.5927 7.87635C51.5927 7.60949 51.4148 7.25367 51.1479 6.98681C50.8811 6.71995 50.5252 6.54205 49.9915 6.54205C49.5468 6.54205 49.1909 6.71995 48.7462 6.98681C48.3904 7.25367 48.0345 7.60949 47.8566 8.05426C47.8085 7.90978 47.7864 7.76531 47.7621 7.60672C47.7416 7.47238 47.7195 7.3279 47.6787 7.16472C47.6415 7.05295 47.6198 6.94117 47.6007 6.84247C47.5742 6.70552 47.5525 6.59374 47.5008 6.54205L44.8322 7.07577V7.43158C45.188 7.43158 45.4549 7.43158 45.6328 7.52054C45.8107 7.60949 45.9886 7.69844 46.0776 7.87635C46.2555 8.05426 46.3444 8.23216 46.3444 8.58798C46.4334 8.94379 46.4334 9.38856 46.4334 9.92224V10.9897C46.4334 11.6124 46.4334 11.9682 46.3444 12.324C46.2555 12.5908 46.1665 12.8577 46.0776 13.0356C45.9886 13.2135 45.8107 13.3025 45.6328 13.3914C45.4549 13.4804 45.188 13.4804 44.8322 13.4804V13.9251H49.4578V13.4804C49.102 13.4804 48.8351 13.4804 48.6572 13.3914C48.4793 13.3025 48.3014 13.2135 48.2124 13.0356C48.0345 12.8577 47.9456 12.5908 47.9456 12.324C47.8566 11.9682 47.8566 11.5234 47.8566 10.9897V10.9897V9.83328C47.8566 9.1217 48.0345 8.49902 48.3904 8.05426C48.7462 7.60949 49.013 7.34263 49.3688 7.34263C49.8136 7.34263 49.9915 7.60949 49.9915 8.05426C49.9915 8.23216 49.9915 8.41007 50.1694 8.58798C50.3473 8.76588 50.5252 8.85484 50.7031 8.85484ZM52.1266 13.9336V13.5778C52.4824 13.5778 52.7492 13.5778 52.9272 13.4888C53.1051 13.3998 53.283 13.3109 53.3719 13.133C53.4608 12.9551 53.5498 12.6883 53.6387 12.4215L53.6388 12.4214L53.6388 12.4214C53.7277 12.0655 53.7277 11.7097 53.7277 11.0871V10.0196C53.7277 9.48589 53.7277 9.04112 53.6388 8.68531C53.6388 8.3295 53.5498 8.15159 53.3719 7.97368C53.283 7.79578 53.1051 7.70682 52.9272 7.61787C52.7492 7.52891 52.4824 7.52891 52.1266 7.52891V7.08415L55.151 6.55043V10.9981C55.151 11.5318 55.151 11.9766 55.2399 12.3324C55.2399 12.5993 55.3289 12.8661 55.5068 13.044C55.5958 13.2219 55.7737 13.3109 55.9516 13.3998C56.1295 13.4888 56.3963 13.4888 56.7522 13.4888V13.9336H52.1266ZM55.062 4.23763C54.8841 4.41554 54.7062 4.5045 54.4394 4.5045C54.1725 4.5045 53.9946 4.41554 53.8167 4.23763C53.6388 4.05973 53.5498 3.79287 53.5498 3.52601C53.5498 3.25915 53.6388 3.08124 53.8167 2.90333C53.9946 2.72543 54.1725 2.63647 54.4394 2.63647C54.7062 2.63647 54.8841 2.72543 55.062 2.90333C55.2399 3.08124 55.3289 3.3481 55.3289 3.52601C55.3289 3.79287 55.2399 4.05973 55.062 4.23763ZM63.2453 6.54205C62.6226 6.54205 62.0889 6.71995 61.6441 6.98681L61.6441 6.98684C61.1993 7.34265 60.7545 7.69845 60.4877 8.05426C60.4395 7.90978 60.4174 7.76531 60.3932 7.60673C60.3727 7.47238 60.3506 7.32791 60.3098 7.16472C60.2725 7.05295 60.2509 6.94117 60.2318 6.84247C60.2052 6.70552 60.1836 6.59374 60.1319 6.54205L57.4633 7.07577V7.43158C57.8191 7.43158 58.0859 7.43158 58.2638 7.52054C58.4418 7.60949 58.6197 7.69844 58.7086 7.87635C58.8865 8.05426 58.9755 8.23216 58.9755 8.58798C59.0644 8.94379 59.0644 9.38856 59.0644 9.92224V10.9897C59.0644 11.6124 59.0644 11.9682 58.9755 12.324C58.8865 12.5908 58.7976 12.8577 58.7086 13.0356C58.6197 13.2135 58.4418 13.3025 58.2638 13.3914C58.0859 13.4804 57.8191 13.4804 57.4633 13.4804V13.9251H61.9109V13.4804C61.5551 13.4804 61.2883 13.4804 61.1104 13.3914C60.9325 13.3025 60.7546 13.2135 60.6656 13.0356C60.5766 12.8577 60.4877 12.5908 60.4877 12.324C60.3987 11.9682 60.3987 11.5234 60.3987 10.9897V10.9897V9.65542C60.3987 9.03275 60.5766 8.58798 61.1104 8.14321C61.6441 7.69844 62.1778 7.52054 62.7115 7.52054C63.2453 7.52054 63.69 7.7874 63.9569 8.14321C64.2237 8.58798 64.4016 9.1217 64.4016 9.83328V11.0786C64.4016 11.7013 64.4016 12.0571 64.3127 12.4129C64.2237 12.6798 64.1348 12.9467 64.0458 13.1246C63.9569 13.3025 63.779 13.3914 63.6011 13.4804C63.4232 13.5693 63.1563 13.5693 62.8005 13.5693V14.0141H67.4261V13.5693C67.0703 13.5693 66.8034 13.5693 66.6255 13.4804C66.4476 13.3914 66.2697 13.3025 66.1807 13.1246C66.0028 12.9467 65.9139 12.6798 65.9139 12.4129C65.8249 12.0571 65.8249 11.6124 65.8249 11.0786V9.74438C65.8249 8.76589 65.647 7.9653 65.2022 7.43158C64.7575 6.80891 64.1348 6.54205 63.2453 6.54205ZM70.0057 8.23981C69.6499 8.86248 69.472 9.66307 69.472 10.6416C69.472 11.5311 69.6499 12.2428 70.0947 12.6875C70.5394 13.2213 71.1621 13.3992 71.9627 13.3992C72.3185 13.3992 72.6743 13.3102 73.0301 13.1323C73.3859 12.9544 73.7418 12.6875 74.0976 12.4207L74.4534 12.8654C74.0976 13.3102 73.5639 13.666 73.0301 13.9329C72.4964 14.1997 71.9627 14.2887 71.429 14.2887C70.3615 14.2887 69.472 13.9329 68.8493 13.2213C68.2266 12.5096 67.8708 11.6201 67.8708 10.5526C67.8708 9.92997 67.9598 9.3962 68.2266 8.86248C68.4045 8.32876 68.7604 7.88399 69.1162 7.52818C69.472 7.17237 69.8278 6.9055 70.2726 6.7276C70.7173 6.54969 71.0732 6.46074 71.5179 6.46074C72.3185 6.46074 72.9412 6.63864 73.297 6.9055C73.335 6.96879 73.373 7.03027 73.4101 7.09046L73.4108 7.09149L73.411 7.09192L73.4122 7.09381L73.4127 7.09465L73.413 7.09507C73.6361 7.456 73.8307 7.77098 73.8307 8.15085C73.8307 8.41772 73.7418 8.59562 73.6528 8.77353C73.4749 8.95144 73.208 9.04039 72.9412 9.04039C72.7633 9.04039 72.4964 8.95144 72.4075 8.77353C72.2296 8.59562 72.1406 8.41772 72.1406 8.15085C72.1406 7.79504 72.0517 7.61713 71.9627 7.43923C71.7848 7.26132 71.6069 7.26132 71.429 7.26132C70.8063 7.26132 70.3615 7.61713 70.0057 8.23981ZM77.1228 12.6929C76.6781 12.1592 76.4112 11.5365 76.4112 10.647C76.4112 10.3801 76.4112 10.2022 76.5002 10.0243H81.4816C81.5705 9.75745 81.5705 9.57954 81.5705 9.31268C81.5705 8.60105 81.3036 7.97838 80.7699 7.44465C80.1473 6.91093 79.5246 6.64407 78.724 6.64407C78.2792 6.64407 77.8345 6.73303 77.3897 6.91093C76.9449 7.08884 76.5002 7.3557 76.1443 7.71152C75.7885 8.06733 75.4327 8.5121 75.2548 8.95686C74.9879 9.40163 74.899 9.93535 74.899 10.4691C74.899 11.0028 74.9879 11.5365 75.1658 11.9813C75.3438 12.4261 75.6106 12.8708 75.9664 13.2266C76.2333 13.5824 76.6781 13.8493 77.1228 14.0272C77.5676 14.2051 78.1013 14.2941 78.635 14.2941C79.1688 14.2941 79.7914 14.2051 80.3252 13.9383C80.9478 13.6714 81.3926 13.4045 81.7484 12.9598L81.3926 12.515C81.1257 12.7819 80.7699 13.0487 80.3252 13.2266C79.8804 13.4045 79.5246 13.4935 79.1688 13.4935C78.2792 13.4935 77.5676 13.2266 77.1228 12.6929ZM80.0025 8.98477C79.9846 9.04582 79.9693 9.09793 79.9693 9.13477H76.6781C76.767 8.60105 77.0339 8.15628 77.3897 7.88942C77.7455 7.62256 78.1013 7.44465 78.5461 7.44465C79.0798 7.44465 79.4356 7.53361 79.7025 7.80047C79.9693 8.06733 80.0583 8.33419 80.0583 8.69C80.0583 8.79422 80.0278 8.89844 80.0025 8.98477ZM86.907 13.6714C86.4622 14.1162 85.8396 14.2941 85.2169 14.2941C84.95 14.2941 84.6832 14.2941 84.5053 14.2051C84.4514 14.1782 84.3894 14.1513 84.3217 14.1219C84.1658 14.0542 83.9797 13.9734 83.7936 13.8493C83.5268 13.6714 83.3489 13.6714 83.2599 13.6714C83.082 13.6714 82.9931 13.9383 82.9931 14.383H82.5483V11.2697H82.9931C82.9931 11.8034 83.171 12.3371 83.6157 12.8708C84.0605 13.4045 84.5942 13.6714 85.2169 13.6714C85.5727 13.6714 85.8396 13.5825 86.0175 13.3156C86.1954 13.1377 86.3733 12.8708 86.3733 12.515C86.3733 12.2481 86.2843 12.0702 86.1064 11.8034C85.9285 11.6255 85.6617 11.3586 85.2169 11.1807L84.0605 10.558C83.6157 10.2912 83.2599 10.0243 82.9931 9.57954C82.8152 9.31268 82.7262 8.86791 82.7262 8.5121C82.7262 7.97838 82.9041 7.53361 83.3489 7.17779C83.7936 6.82198 84.2384 6.64407 84.7721 6.64407C85.039 6.64407 85.3059 6.64407 85.5727 6.73303C85.6617 6.7775 85.7729 6.82198 85.8841 6.86646C85.9953 6.91093 86.1064 6.95541 86.1954 6.99989C86.2843 7.08884 86.3733 7.08884 86.4622 7.08884C86.5512 7.08884 86.6402 6.91093 86.6402 6.64407H87.0849V9.13477H86.6402C86.6402 8.69 86.4623 8.24524 86.1954 7.88942C85.9285 7.53361 85.4838 7.3557 85.039 7.3557C84.3274 7.3557 83.9716 7.62256 83.9716 8.24524C83.9716 8.5121 84.0605 8.69001 84.2384 8.86791C84.3686 8.99814 84.5942 9.12838 84.8802 9.2935L84.8805 9.29365C84.9851 9.35405 85.0978 9.41913 85.2169 9.49059L86.1954 10.0243C86.6402 10.2912 86.996 10.558 87.2628 10.9138C87.5297 11.2697 87.6187 11.6255 87.6187 11.9813C87.5297 12.6929 87.3518 13.3156 86.907 13.6714ZM91.0881 14.281C91.7107 14.281 92.3334 14.1031 92.7782 13.6583C93.3119 13.3025 93.4898 12.6798 93.4898 11.8792C93.4898 11.5234 93.4008 11.1676 93.134 10.8118C92.8671 10.456 92.5113 10.1891 92.0666 9.92224L91.0881 9.38856C90.9689 9.31705 90.8561 9.25193 90.7514 9.19148C90.4654 9.02635 90.2398 8.89612 90.1096 8.76588C89.9317 8.58798 89.8427 8.41007 89.8427 8.14321C89.8427 7.52053 90.1985 7.25367 90.9101 7.25367C91.3549 7.25367 91.7997 7.43158 92.0666 7.7874C92.3334 8.14321 92.5113 8.58798 92.5113 9.03275H92.9561V6.54205H92.5113C92.5113 6.80891 92.4224 6.98681 92.3334 6.98681C92.3334 6.98681 92.2445 6.98681 92.0666 6.89786C91.9776 6.85338 91.8664 6.80891 91.7552 6.76443C91.644 6.71996 91.5328 6.67548 91.4439 6.631C91.177 6.54205 90.9991 6.54205 90.6433 6.54205C90.1096 6.54205 89.6648 6.71995 89.22 7.07577C88.7752 7.43158 88.5973 7.87635 88.5973 8.41007C88.5973 8.76588 88.6862 9.21065 88.9531 9.56647C89.1311 10.0112 89.4869 10.2781 89.9317 10.5449L91.0881 11.1676C91.5328 11.3455 91.7997 11.6124 91.9776 11.7903C92.1555 12.0571 92.2445 12.235 92.2445 12.5019C92.2445 12.8577 92.0666 13.1246 91.8886 13.3025C91.7107 13.5693 91.4439 13.6583 91.0881 13.6583C90.4654 13.6583 89.9317 13.3914 89.4869 12.8577C89.0421 12.324 88.8641 11.7903 88.8641 11.2565H88.4194V14.3699H88.8641C88.8641 13.9251 88.9531 13.6583 89.1311 13.6583C89.22 13.6583 89.3979 13.6583 89.6648 13.8362C89.8509 13.9602 90.0369 14.041 90.1928 14.1087C90.2605 14.1381 90.3226 14.1651 90.3764 14.192C90.5543 14.281 90.8212 14.281 91.0881 14.281ZM100.606 11.095C100.606 11.6287 100.606 12.0735 100.695 12.4293C100.784 12.7851 100.873 12.963 100.962 13.1409C101.14 13.3188 101.318 13.4078 101.496 13.4967C101.763 13.5857 102.118 13.5857 102.563 13.5857V14.0305H97.9376V13.5857C98.3824 13.5857 98.7382 13.5857 99.0051 13.4967C99.2719 13.4078 99.4498 13.3188 99.5388 13.1409C99.6277 12.9631 99.7166 12.6964 99.8055 12.4297L99.8056 12.4293C99.8946 12.1624 99.8946 11.7177 99.8946 11.095V4.24558C99.8946 3.71186 99.8946 3.26709 99.8056 2.91128C99.7167 2.55546 99.6277 2.37756 99.5388 2.19965C99.467 2.056 99.2792 1.97035 99.1158 1.89586L99.1157 1.89579L99.1149 1.89545L99.1148 1.89541C99.0763 1.87781 99.039 1.86082 99.0051 1.84384C98.7382 1.75488 98.3824 1.75488 97.9376 1.75488V1.31012H101.407L105.677 11.6287L109.946 1.31012H113.149V1.75488C112.704 1.75488 112.348 1.75488 112.081 1.84384C111.814 1.93279 111.636 2.02174 111.548 2.19965C111.459 2.37756 111.37 2.55546 111.281 2.91128C111.192 3.17814 111.192 3.62291 111.192 4.24558V11.095C111.192 11.6287 111.192 12.0735 111.281 12.4293L111.281 12.4295C111.37 12.6963 111.459 12.9631 111.548 13.1409C111.619 13.2846 111.807 13.3702 111.97 13.4447C112.009 13.4625 112.047 13.4796 112.081 13.4967C112.348 13.5857 112.704 13.5857 113.149 13.5857V14.0305H107.634V13.5857C108.078 13.5857 108.434 13.5857 108.701 13.4967C108.968 13.4078 109.146 13.3188 109.235 13.1409C109.324 12.9631 109.413 12.6964 109.501 12.4297L109.502 12.4293C109.591 12.1624 109.591 11.7177 109.591 11.095V4.15663L105.41 14.2973H105.143L100.606 3.53395V11.095ZM118.486 12.9467C118.575 13.7472 119.02 14.192 119.821 14.192C120.354 14.192 120.799 14.0141 121.066 13.6583L120.799 13.2135C120.71 13.2135 120.621 13.3025 120.532 13.3914C120.443 13.4804 120.354 13.4804 120.266 13.4804C119.999 13.4804 119.821 13.2135 119.821 12.6798V9.47751C119.821 8.41007 119.643 7.69844 119.198 7.25367C118.753 6.80891 118.042 6.54205 117.063 6.54205C116.441 6.54205 115.818 6.631 115.284 6.98681C114.75 7.34263 114.484 7.69844 114.484 8.23216C114.484 8.41007 114.484 8.58798 114.661 8.76589C114.839 8.85484 115.017 8.94379 115.195 8.94379C115.373 8.94379 115.462 8.94379 115.64 8.76589C115.729 8.58798 115.818 8.41007 115.818 8.23216C115.818 7.9653 115.907 7.69844 116.174 7.52054C116.441 7.34263 116.707 7.25367 116.974 7.25367C117.508 7.25367 117.864 7.34263 118.042 7.69844C118.22 7.9653 118.309 8.58798 118.309 9.38856C118.039 9.46548 117.787 9.52577 117.544 9.58381C117.224 9.66001 116.921 9.73232 116.618 9.83328C116.539 9.86512 116.456 9.89695 116.373 9.92929C115.988 10.0777 115.576 10.2368 115.284 10.456C114.928 10.6339 114.573 10.9007 114.395 11.2565C114.128 11.6124 114.039 11.9682 114.039 12.4129C114.039 13.0356 114.217 13.3914 114.573 13.7472C114.928 14.0141 115.373 14.192 115.907 14.192C116.352 14.192 116.796 14.1031 117.152 13.9251C117.597 13.7472 118.042 13.3914 118.486 12.9467ZM115.64 12.235C115.64 11.2565 116.529 10.5449 118.398 10.1001H118.486V12.324C118.042 12.6798 117.686 12.9467 117.419 13.1246C117.152 13.2135 116.885 13.3025 116.618 13.3025C116.352 13.3025 116.085 13.2135 115.907 13.0356C115.729 12.8577 115.64 12.5908 115.64 12.235ZM128.36 8.58798C128.271 8.76588 128.005 8.85484 127.738 8.85484C127.56 8.85484 127.382 8.76588 127.204 8.58798C127.026 8.41007 127.026 8.23216 127.026 8.05426C127.026 7.60949 126.848 7.34263 126.403 7.34263C126.137 7.34263 125.781 7.60949 125.425 8.05426C125.069 8.49902 124.891 9.1217 124.891 9.83328V10.9897C124.891 11.5234 124.891 11.9682 124.98 12.324C124.98 12.5908 125.069 12.8577 125.247 13.0356C125.336 13.2135 125.514 13.3025 125.692 13.3914C125.87 13.4804 126.136 13.4804 126.492 13.4804V13.9251H121.867V13.4804C122.223 13.4804 122.489 13.4804 122.667 13.3914C122.845 13.3025 123.023 13.2135 123.112 13.0356C123.201 12.8577 123.29 12.5908 123.379 12.324C123.468 11.9682 123.468 11.6124 123.468 10.9897V9.92224C123.468 9.38856 123.468 8.94379 123.379 8.58798C123.379 8.23216 123.29 8.05426 123.112 7.87635C123.023 7.69844 122.845 7.60949 122.667 7.52054C122.489 7.43158 122.223 7.43158 121.867 7.43158V7.07577L124.535 6.54205C124.587 6.59374 124.609 6.70552 124.635 6.84246C124.654 6.94117 124.676 7.05294 124.713 7.16472C124.754 7.3279 124.776 7.47238 124.797 7.60672C124.821 7.76531 124.843 7.90978 124.891 8.05426C125.069 7.60949 125.425 7.25367 125.781 6.98681C126.225 6.71995 126.581 6.54205 127.026 6.54205C127.56 6.54205 127.916 6.71995 128.182 6.98681C128.449 7.25367 128.627 7.60949 128.627 7.87635C128.538 8.14321 128.449 8.41007 128.36 8.58798ZM132.096 14.0278C131.652 13.9388 131.207 13.8499 130.851 13.7609C130.495 13.672 130.317 13.4941 130.317 13.4941C130.317 13.3162 130.317 13.2272 130.495 13.1382C130.584 13.0493 130.762 12.9603 131.029 12.8714C131.085 12.8528 131.136 12.8343 131.186 12.8165C131.374 12.7492 131.529 12.6935 131.74 12.6935C131.814 12.6935 131.903 12.6782 132.007 12.6603C132.155 12.635 132.333 12.6045 132.541 12.6045C133.253 12.5156 133.875 12.1598 134.409 11.626C134.943 11.0923 135.21 10.3807 135.21 9.66906C135.21 9.04638 134.943 8.51266 134.587 7.97894C134.765 7.71208 135.032 7.62313 135.21 7.62313C135.388 7.62313 135.477 7.62313 135.565 7.71208C135.565 7.76706 135.599 7.82203 135.646 7.89801C135.675 7.94496 135.709 7.99994 135.743 8.06789C135.743 8.2458 135.832 8.33475 135.921 8.42371C136.01 8.51266 136.188 8.51266 136.366 8.51266C136.455 8.51266 136.633 8.42371 136.722 8.33476C136.811 8.2458 136.9 8.06789 136.9 7.88999C136.9 7.59522 136.778 7.42255 136.635 7.22026C136.605 7.17836 136.575 7.13519 136.544 7.08941C136.366 6.82255 136.01 6.73359 135.654 6.73359C135.388 6.73359 135.121 6.82255 134.854 7.00045C134.587 7.08941 134.32 7.26731 134.142 7.53417C133.609 7.00045 132.897 6.73359 132.096 6.73359C131.296 6.73359 130.584 7.08941 129.961 7.62313C129.339 8.2458 129.072 8.86848 129.072 9.66906C129.072 10.2028 129.161 10.7365 129.517 11.1813C129.872 11.626 130.228 11.9819 130.762 12.2487C130.228 12.4266 129.784 12.6935 129.517 12.9603C129.25 13.2272 129.072 13.583 129.072 13.9388C129.072 14.4726 129.339 14.9173 129.872 15.2731C130.406 15.6289 131.118 15.8069 132.007 15.8958C132.897 15.9848 133.609 16.1627 134.053 16.3406C134.587 16.5185 134.765 16.8743 134.765 17.3191C134.765 17.7638 134.498 18.2086 133.964 18.4755C133.431 18.7423 132.808 18.9202 132.185 18.9202C131.563 18.9202 130.94 18.7423 130.406 18.4755C129.872 18.2086 129.606 17.7638 129.606 17.3191C129.606 16.9632 129.784 16.5185 130.228 15.9848L129.872 15.7179C129.072 16.1627 128.627 16.6964 128.627 17.408C128.627 18.0307 128.983 18.5644 129.606 19.0092C130.228 19.4539 131.118 19.6319 132.185 19.6319C133.253 19.6319 134.053 19.365 134.765 18.8313C135.477 18.2976 135.832 17.6749 135.832 16.7853C135.832 16.0737 135.477 15.451 134.943 14.9173C134.32 14.4725 133.431 14.1167 132.096 14.0278ZM132.185 7.26731C132.63 7.26731 132.986 7.44522 133.253 7.88999C133.52 8.2458 133.609 8.77952 133.609 9.49115C133.609 10.2028 133.52 10.6475 133.253 11.0923C132.986 11.5371 132.63 11.715 132.185 11.715C131.74 11.715 131.385 11.5371 131.118 11.0923C130.851 10.6475 130.762 10.1138 130.762 9.49115C130.762 8.86848 130.851 8.33476 131.118 7.88999C131.385 7.44522 131.74 7.26731 132.185 7.26731ZM142.86 14.192C142.059 14.192 141.614 13.7472 141.436 12.9467C140.992 13.3914 140.547 13.7472 140.102 13.9251C139.746 14.1031 139.301 14.192 138.857 14.192C138.323 14.192 137.878 14.0141 137.522 13.7472C137.167 13.3914 136.989 13.0356 136.989 12.4129C136.989 11.9682 137.078 11.6124 137.344 11.2565C137.522 10.9007 137.878 10.6339 138.234 10.456C138.526 10.2368 138.938 10.0777 139.323 9.92926C139.406 9.89693 139.489 9.86511 139.568 9.83328C139.871 9.73232 140.174 9.66001 140.493 9.58381C140.737 9.52577 140.989 9.46548 141.258 9.38856C141.258 8.58798 141.169 7.9653 140.992 7.69844C140.814 7.34263 140.458 7.25367 139.924 7.25367C139.657 7.25367 139.39 7.34263 139.124 7.52054C138.857 7.69844 138.768 7.9653 138.768 8.23216C138.768 8.41007 138.679 8.58798 138.59 8.76589C138.412 8.94379 138.323 8.94379 138.145 8.94379C137.967 8.94379 137.789 8.85484 137.611 8.76589C137.433 8.58798 137.433 8.41007 137.433 8.23216C137.433 7.69844 137.7 7.34263 138.234 6.98681C138.768 6.631 139.39 6.54205 140.013 6.54205C140.992 6.54205 141.703 6.80891 142.148 7.25367C142.593 7.69844 142.771 8.41007 142.771 9.47751V12.6798C142.771 13.2135 142.949 13.4804 143.215 13.4804C143.304 13.4804 143.393 13.4804 143.482 13.3914C143.571 13.3025 143.66 13.2135 143.749 13.2135L144.016 13.6583C143.838 14.0141 143.393 14.192 142.86 14.192ZM141.525 10.1001C139.657 10.5449 138.768 11.2565 138.768 12.235C138.768 12.5908 138.857 12.8577 139.035 13.0356C139.213 13.2135 139.479 13.3025 139.746 13.3025C140.013 13.3025 140.28 13.2135 140.547 13.1246C140.814 12.9467 141.169 12.6798 141.614 12.324V10.1001H141.525ZM150.776 8.85484C151.043 8.85484 151.31 8.76588 151.399 8.58798C151.522 8.46515 151.56 8.29992 151.601 8.12157L151.601 8.12121C151.619 8.04134 151.638 7.95885 151.666 7.87635C151.666 7.60949 151.488 7.25367 151.221 6.98681C150.954 6.71995 150.598 6.54205 150.065 6.54205C149.62 6.54205 149.264 6.71995 148.819 6.98681C148.464 7.25367 148.108 7.60949 147.93 8.05426C147.882 7.90984 147.86 7.76542 147.835 7.60689L147.835 7.60673L147.835 7.60655L147.835 7.6064V7.60628C147.815 7.47206 147.793 7.32772 147.752 7.16472C147.715 7.05294 147.693 6.94117 147.674 6.84246C147.647 6.70552 147.626 6.59374 147.574 6.54205L144.905 7.07577V7.43158C145.261 7.43158 145.528 7.43158 145.706 7.52054C145.884 7.60949 146.062 7.69844 146.151 7.87635C146.329 8.05426 146.418 8.23216 146.418 8.58798C146.507 8.94373 146.507 9.38841 146.507 9.92196V9.92224V10.9897V10.99C146.507 11.6125 146.507 11.9682 146.418 12.324C146.329 12.5908 146.24 12.8577 146.151 13.0356C146.062 13.2135 145.884 13.3025 145.706 13.3914C145.528 13.4804 145.261 13.4804 144.905 13.4804V13.9251H149.531V13.4804C149.175 13.4804 148.908 13.4804 148.73 13.3914C148.552 13.3025 148.375 13.2135 148.286 13.0356C148.108 12.8577 148.019 12.5908 148.019 12.324C147.93 11.9682 147.93 11.5234 147.93 10.9897V9.83328C147.93 9.1217 148.108 8.49902 148.464 8.05426C148.819 7.60949 149.175 7.34263 149.442 7.34263C149.887 7.34263 150.065 7.60949 150.065 8.05426C150.065 8.23216 150.065 8.41007 150.243 8.58798C150.42 8.76588 150.598 8.85484 150.776 8.85484ZM153.711 10.647C153.711 11.5365 153.978 12.1592 154.423 12.6929C154.868 13.2266 155.579 13.4935 156.469 13.4935C156.825 13.4935 157.18 13.4045 157.625 13.2266C158.07 13.0487 158.426 12.7819 158.693 12.515L159.048 12.9598C158.693 13.4045 158.248 13.6714 157.625 13.9383C157.091 14.2051 156.469 14.2941 155.935 14.2941C155.401 14.2941 154.868 14.2051 154.423 14.0272C153.978 13.8493 153.533 13.5824 153.266 13.2266C152.911 12.8708 152.644 12.4261 152.466 11.9813C152.288 11.5365 152.199 11.0028 152.199 10.4691C152.199 9.93535 152.288 9.40163 152.555 8.95686C152.733 8.5121 153.088 8.06733 153.444 7.71152C153.8 7.3557 154.245 7.08884 154.69 6.91093C155.134 6.73303 155.579 6.64407 156.024 6.64407C156.825 6.64407 157.447 6.91093 158.07 7.44465C158.604 7.97838 158.87 8.60105 158.87 9.31268C158.87 9.57954 158.87 9.75745 158.781 10.0243H153.889C153.711 10.2022 153.711 10.3801 153.711 10.647ZM157.269 9.13477C157.269 9.09793 157.285 9.04582 157.302 8.98477C157.328 8.89844 157.358 8.79422 157.358 8.69C157.358 8.33419 157.269 8.06733 157.002 7.80047C156.736 7.53361 156.38 7.44465 155.846 7.44465C155.401 7.44465 155.045 7.62256 154.69 7.88942C154.334 8.15628 154.067 8.60105 153.978 9.13477H157.269ZM159.404 7.18257V7.71629H160.472V11.9861C160.472 12.7867 160.65 13.4094 161.005 13.7652C161.272 14.2099 161.717 14.3879 162.34 14.3879C162.607 14.3879 163.051 14.2989 163.407 14.032C163.852 13.7652 164.208 13.4983 164.475 13.1425L164.119 12.7867C163.585 13.2315 163.14 13.4983 162.784 13.4983C162.162 13.4983 161.895 13.0536 161.895 11.9861V7.71629H163.674V7.00467H161.895V4.69187H161.183C161.094 5.4035 160.916 5.93722 160.65 6.38199C160.383 6.7378 160.027 7.09362 159.404 7.18257ZM11.9193 32.2499C11.8748 32.1165 11.8303 32.0053 11.7858 31.8941C11.7414 31.7829 11.6969 31.6717 11.6524 31.5383C11.4745 31.2714 11.3855 31.1824 11.2076 31.0044C10.6739 31.5382 10.0512 31.9829 9.42856 32.3388C8.80588 32.6056 8.09426 32.7835 7.38263 32.7835C6.58204 32.7835 5.78146 32.6056 4.98088 32.2499C4.1803 31.8941 3.55762 31.4492 3.0239 30.8265C2.57913 30.2928 2.04541 29.5813 1.77855 28.6917C1.42274 27.8912 1.33378 27.0015 1.33378 26.112C1.33378 25.2225 1.51169 24.3329 1.77855 23.5324C2.13436 22.7318 2.57913 22.0201 3.11285 21.3975C3.64658 20.7748 4.3582 20.33 5.06983 19.9742C5.87042 19.6184 6.58204 19.4405 7.47158 19.4405C8.18321 19.4405 8.80588 19.6184 9.51751 19.8853C10.1402 20.1521 10.7629 20.5969 11.2966 21.2196C11.443 21.1463 11.5292 21.0129 11.6543 20.8192C11.6812 20.7775 11.7099 20.7331 11.7414 20.6859C11.9193 20.4191 12.0082 20.2411 12.0082 19.9742H12.453V24.5998H12.0082C11.7414 23.1766 11.2076 22.1091 10.407 21.3975C9.60647 20.5969 8.71693 20.2412 7.56053 20.2412C6.75995 20.2412 6.13728 20.419 5.5146 20.7748C4.98088 21.1306 4.44716 21.5754 4.09134 22.198C3.82448 22.7318 3.55762 23.3544 3.37971 24.0661C3.20181 24.7777 3.11285 25.4893 3.11285 26.112C3.11285 26.8236 3.20181 27.4463 3.37971 28.1579C3.55762 28.8697 3.82448 29.4922 4.1803 30.026C4.53611 30.5598 4.98088 31.0934 5.60356 31.4492C6.13728 31.805 6.84891 31.983 7.64949 31.983C8.71693 31.983 9.69542 31.6271 10.496 30.8265C11.2966 30.026 11.7414 28.9585 12.0972 27.6242H12.5419V32.2499H11.9193ZM18.4133 31.46C18.5023 32.2606 18.947 32.7053 19.7476 32.7053C20.2813 32.7053 20.7261 32.5274 20.993 32.0827L20.7261 31.7268C20.6371 31.7268 20.5482 31.8158 20.4592 31.9048C20.3703 31.9937 20.2813 31.9937 20.1924 31.9937C19.9255 31.9937 19.7476 31.7268 19.7476 31.1931V27.9018C19.7476 26.8344 19.5697 26.1228 19.1249 25.678C18.6802 25.2332 17.9685 24.9664 16.99 24.9664C16.3674 24.9664 15.7447 25.0553 15.211 25.4111C14.6773 25.767 14.4104 26.1228 14.4104 26.6565C14.4104 26.8344 14.4104 27.0123 14.5883 27.1902C14.7662 27.2792 14.9441 27.3681 15.122 27.3681C15.2999 27.3681 15.3889 27.3681 15.5668 27.1902C15.6557 27.0123 15.7447 26.8344 15.7447 26.6565C15.7447 26.3896 15.8336 26.1228 16.1005 25.9449C16.3674 25.767 16.6342 25.678 16.9011 25.678C17.4348 25.678 17.7906 25.767 17.9685 26.1228C18.1464 26.4786 18.2354 27.1013 18.2354 27.9018C17.9663 27.9787 17.7137 28.039 17.4706 28.097C17.1513 28.1733 16.8483 28.2456 16.5453 28.3466C16.4657 28.3784 16.3833 28.4103 16.2995 28.4426C15.9152 28.591 15.5031 28.7502 15.211 28.9693C14.8552 29.2362 14.5883 29.503 14.3214 29.8588C14.0546 30.2146 13.9656 30.5705 13.9656 31.0152C13.9656 31.5489 14.1435 31.9048 14.4993 32.2606C14.8552 32.5274 15.2999 32.7053 15.8336 32.7053C16.2784 32.7053 16.7232 32.6164 17.079 32.4385C17.5238 32.2606 17.9685 31.9048 18.4133 31.46ZM15.5668 30.7484C15.5668 29.7699 16.4563 29.0582 18.3243 28.6135H18.4133V30.8373C17.9685 31.1931 17.6127 31.46 17.3459 31.6379C17.079 31.7268 16.8121 31.8158 16.5453 31.8158C16.2784 31.8158 16.0116 31.7269 15.8336 31.5489C15.6557 31.371 15.5668 31.1042 15.5668 30.7484ZM25.8857 25.5955C26.3304 25.3286 26.8642 25.1507 27.4868 25.1507C28.3764 25.1507 28.999 25.4176 29.4438 26.0403C29.8886 26.574 30.0665 27.3746 30.0665 28.353V29.6873C30.0665 30.2211 30.0665 30.6658 30.1554 31.0216C30.1554 31.2885 30.2444 31.5554 30.4223 31.7333C30.5113 31.9112 30.6892 32.0001 30.8671 32.0891C31.045 32.178 31.3118 32.178 31.6677 32.178V32.6228H27.0421V32.0891H27.0421C27.3979 32.0891 27.6647 32.0891 27.8426 32.0001C28.0206 31.9112 28.1985 31.8222 28.2874 31.6443C28.3764 31.4664 28.4653 31.1996 28.5543 30.9327C28.6432 30.5769 28.6432 30.2211 28.6432 29.5984V28.353C28.6432 27.6414 28.5543 27.1077 28.1985 26.6629C27.9316 26.3071 27.4868 26.0403 26.9531 26.0403C26.4194 26.0403 25.8857 26.2182 25.3519 26.6629C24.8182 27.1077 24.6403 27.5525 24.6403 28.1751V29.5094C24.6403 30.0432 24.6403 30.4879 24.7293 30.8437C24.7293 31.1996 24.8182 31.3775 24.9072 31.5554C24.9961 31.7333 25.174 31.8222 25.3519 31.9112C25.5299 32.0001 25.7967 32.0001 26.1525 32.0001V32.4449H21.7048V32.0891H21.7049C22.0607 32.0891 22.3275 32.0891 22.5054 32.0001C22.6833 31.9112 22.8612 31.8222 22.9502 31.6443C23.0391 31.4664 23.1281 31.1996 23.2171 30.9327C23.306 30.5769 23.306 30.2211 23.306 29.5984V28.5309C23.306 27.9972 23.306 27.5525 23.2171 27.1966C23.2171 26.8408 23.1281 26.6629 22.9502 26.485C22.8612 26.3071 22.6833 26.2182 22.5054 26.1292C22.3275 26.0403 22.0607 26.0403 21.7048 26.0403V25.5955L24.3735 25.0618C24.4251 25.1135 24.4468 25.2252 24.4733 25.3622L24.4733 25.3622C24.4925 25.4609 24.5141 25.5727 24.5514 25.6844C24.5922 25.8476 24.6142 25.9921 24.6348 26.1264L24.6348 26.1264C24.659 26.285 24.6811 26.4295 24.7293 26.574C25.0851 26.2182 25.4409 25.8623 25.8857 25.5955ZM33.8025 29.1472C33.8025 28.1687 33.9804 27.3681 34.3362 26.7455C34.692 26.1228 35.1369 25.767 35.9375 25.5891C36.1154 25.5891 36.2932 25.5891 36.4711 25.767L36.4712 25.7672C36.5601 25.945 36.6491 26.1229 36.6491 26.4786C36.6491 26.7455 36.738 26.9234 36.9159 27.1013C37.0048 27.2792 37.2717 27.3681 37.4496 27.3681C37.8054 27.3681 37.9834 27.2792 38.1613 27.1013C38.2503 26.9234 38.3391 26.7455 38.3391 26.4786C38.3391 26.0338 38.1613 25.678 37.7165 25.4111C37.3607 25.1443 36.738 24.9664 35.9375 24.9664C35.4927 24.9664 35.1368 25.0553 34.692 25.2332C34.2473 25.4111 33.8915 25.678 33.5357 26.0338C33.1799 26.3896 32.8241 26.8344 32.6462 27.3681C32.3793 27.9018 32.2903 28.4356 32.2903 29.0582C32.2903 30.1257 32.6462 31.0152 33.2689 31.7268C33.8915 32.4385 34.781 32.7943 35.8484 32.7943C36.3821 32.7943 36.9159 32.7053 37.4496 32.4385C37.8944 32.1716 38.4281 31.8158 38.7839 31.371L38.4282 30.9263C38.0723 31.1931 37.7164 31.46 37.3606 31.6379C37.0048 31.8158 36.649 31.9048 36.2932 31.9048C35.4926 31.9048 34.87 31.7268 34.4253 31.1931C33.9805 30.7484 33.8025 30.0367 33.8025 29.1472ZM40.7407 29.1515C40.7407 30.041 41.0076 30.6637 41.4524 31.1974C41.8971 31.7311 42.6088 31.998 43.4983 31.998C43.8541 31.998 44.2099 31.9089 44.6547 31.731C45.0995 31.5531 45.4553 31.2862 45.7221 31.0194L46.0779 31.4642C45.7221 31.9089 45.2774 32.1759 44.6547 32.4427C44.121 32.7096 43.4983 32.7985 42.9646 32.7985C42.4308 32.7985 41.8971 32.7096 41.4524 32.5317C41.0076 32.3538 40.5628 32.0868 40.296 31.731C39.9401 31.3752 39.6733 30.9305 39.4954 30.4858C39.3175 30.041 39.2285 29.5073 39.2285 28.9735C39.2285 28.4398 39.3175 27.906 39.5843 27.4612C39.7622 27.0165 40.1181 26.5718 40.4739 26.216C40.8297 25.8602 41.2745 25.5933 41.7192 25.4154C42.164 25.2375 42.6088 25.1485 43.0535 25.1485C43.8541 25.1485 44.4768 25.4154 45.0995 25.9491C45.6332 26.4828 45.9 27.1055 45.9 27.8171C45.9 28.084 45.9 28.2619 45.8111 28.5288H40.9186C40.7407 28.7067 40.7407 28.8846 40.7407 29.1515ZM44.243 27.4893L44.2431 27.4892C44.2683 27.4029 44.2989 27.2987 44.2989 27.1945C44.2989 26.8387 44.2099 26.5718 43.9431 26.3049C43.6762 26.0381 43.3204 25.9491 42.7867 25.9491C42.3419 25.9491 41.9861 26.127 41.6303 26.3939C41.2745 26.7497 41.0076 27.1055 40.9186 27.6392H44.2099C44.2099 27.6024 44.2252 27.5503 44.243 27.4893ZM52.6608 27.3746C52.9277 27.3746 53.1945 27.2856 53.2835 27.1077C53.3724 26.9298 53.4614 26.663 53.5503 26.3962L53.5504 26.3961C53.5504 26.1292 53.3724 25.7734 53.1056 25.5065C52.8387 25.2397 52.4829 25.0618 51.9492 25.0618C51.5044 25.0618 51.1486 25.2397 50.7038 25.5065C50.348 25.7734 49.9922 26.1292 49.8143 26.574C49.7661 26.4295 49.7441 26.285 49.7198 26.1264C49.6993 25.9921 49.6772 25.8476 49.6364 25.6844C49.5991 25.5727 49.5775 25.4609 49.5584 25.3622C49.5318 25.2252 49.5102 25.1135 49.4585 25.0618L46.7899 25.5955V26.0403C47.1457 26.0403 47.4126 26.0403 47.5905 26.1292C47.7684 26.2182 47.9463 26.3071 48.0352 26.485C48.2131 26.6629 48.3021 26.8408 48.3021 27.1966C48.391 27.5525 48.391 27.9972 48.391 28.5309V29.5984C48.391 30.2211 48.391 30.5769 48.3021 30.9327C48.2131 31.1996 48.1242 31.4664 48.0352 31.6443C47.9463 31.8222 47.7684 31.9112 47.5905 32.0001C47.4126 32.0891 47.1457 32.0891 46.7899 32.0891V32.4449H51.4155V32.0001C51.0597 32.0001 50.7928 32.0001 50.6149 31.9112C50.437 31.8222 50.2591 31.7333 50.1701 31.5554C49.9922 31.3775 49.9033 31.1106 49.9033 30.8437C49.8143 30.4879 49.8143 30.0432 49.8143 29.5094V28.353C49.8143 27.6414 49.9922 27.0187 50.348 26.574C50.7038 26.1292 51.0597 25.8623 51.3265 25.8623C51.7713 25.8623 51.9492 26.1292 51.9492 26.574C51.9492 26.7519 51.9492 26.9298 52.1271 27.1077C52.305 27.2856 52.4829 27.3746 52.6608 27.3746ZM61.1995 25.4124H62.178C62.7117 25.4124 63.1565 25.4123 63.4233 25.3235L63.4234 25.3234C63.6902 25.2345 63.9571 25.1455 64.1349 25.0566C64.3129 24.9676 64.4018 24.7008 64.4908 24.4339C64.5797 24.167 64.5797 23.8112 64.5797 23.3665H64.9355V28.17H64.4908C64.4908 27.7252 64.4908 27.3694 64.4018 27.1025C64.3129 26.8356 64.2239 26.6578 64.046 26.4799C64.004 26.4589 63.962 26.4329 63.9177 26.4055C63.7742 26.3168 63.6062 26.213 63.3344 26.213C63.0675 26.124 62.6227 26.1239 62.089 26.1239H61.1105V29.5042C61.1105 30.0379 61.1105 30.4827 61.1995 30.8385L61.1998 30.8395C61.2887 31.106 61.3775 31.3725 61.4663 31.5502C61.5381 31.6938 61.7259 31.7794 61.8891 31.8538L61.9191 31.8675L61.9519 31.8827L61.9765 31.8944L62.0001 31.9059C62.2669 31.995 62.6227 31.995 63.0675 31.995V32.4397H57.5524V32.0839C57.9972 32.0839 58.353 32.0839 58.6198 31.995C58.8867 31.906 59.0646 31.8171 59.1536 31.6392C59.2425 31.4613 59.3315 31.1944 59.4204 30.9275C59.5094 30.5717 59.5094 30.2159 59.5094 29.5932V22.7438C59.5094 22.2101 59.5094 21.7653 59.4204 21.4095C59.3315 21.0537 59.2425 20.8758 59.1536 20.6979C59.0817 20.5542 58.8938 20.4685 58.7305 20.3939C58.6916 20.3762 58.6541 20.3591 58.6198 20.342C58.3532 20.2531 57.9979 20.2531 57.5537 20.2531H57.5524V19.8083H67.1594L67.3373 22.5658H66.8925L66.8036 22.121C66.6256 21.4984 66.4477 21.0537 66.1809 20.8758C65.914 20.6979 65.3803 20.52 64.4908 20.52H61.1105V25.4124H61.1995ZM73.5638 31.731C73.9196 31.3752 74.2754 30.9305 74.4533 30.4858C74.6313 30.041 74.7202 29.5073 74.8092 28.9735C74.8092 28.4398 74.6313 27.906 74.4533 27.4612C74.2754 27.0165 73.9196 26.5718 73.5638 26.216C73.208 25.8602 72.7632 25.5933 72.2295 25.4154C71.6958 25.2375 71.1621 25.1485 70.6283 25.1485C70.0946 25.1485 69.5609 25.2375 69.0272 25.4154C68.4935 25.5933 68.0487 25.8602 67.6929 26.216C67.3371 26.5718 66.9813 27.0165 66.8033 27.4612C66.5365 27.995 66.4475 28.4398 66.4475 28.9735C66.4475 29.5073 66.6254 30.041 66.8033 30.4858C66.9813 30.9305 67.3371 31.3752 67.6929 31.731C68.1376 32.0868 68.4935 32.3538 69.0272 32.5317C69.5609 32.7096 70.0946 32.7985 70.6283 32.7985C71.1621 32.7985 71.6958 32.7096 72.2295 32.5317C72.7632 32.3538 73.208 32.0868 73.5638 31.731ZM70.7173 25.8602C71.4289 25.8602 72.0516 26.216 72.4964 26.7497C72.9411 27.3724 73.119 28.084 73.119 28.9735C73.119 29.8631 72.9411 30.6637 72.4964 31.1974C72.1406 31.8201 71.5179 32.0869 70.7173 32.0869C70.0057 32.0869 69.383 31.8201 68.9382 31.1974C68.4935 30.5747 68.3156 29.8631 68.3156 28.9735C68.3156 28.084 68.4935 27.2834 68.9382 26.7497C69.294 26.127 69.9167 25.8602 70.7173 25.8602ZM81.9594 32.6817L81.9593 32.6817C81.926 32.5816 81.8815 32.4482 81.837 32.2703C81.7925 32.1368 81.7703 32.0034 81.7481 31.87C81.7258 31.7365 81.7036 31.6031 81.6591 31.4697C81.3644 31.7644 81.0696 31.9981 80.7243 32.2719C80.6528 32.3286 80.579 32.3871 80.5027 32.4482C80.0579 32.715 79.5242 32.8929 78.9905 32.8929C78.101 32.8929 77.4783 32.6261 77.0335 32.0034C76.6777 31.4697 76.4109 30.6691 76.4109 29.6906V28.3563C76.4109 27.8226 76.4109 27.3778 76.3219 27.022C76.3219 26.7551 76.2329 26.4883 76.055 26.3104C75.9661 26.1325 75.7882 26.0435 75.6103 25.9546C75.4324 25.8656 75.1655 25.8656 74.7207 25.8656V25.4208H77.7452V29.5127C77.7452 30.2243 77.8341 30.758 78.101 31.2028C78.3678 31.5586 78.7236 31.8255 79.2574 31.8255C79.4353 31.8255 79.7021 31.7365 79.969 31.6476C80.2359 31.5586 80.5027 31.3807 80.6806 31.2028C80.9475 31.0249 81.1254 30.758 81.2143 30.5801C81.3923 30.3133 81.3923 30.0464 81.3923 29.6906V28.2673C81.3923 27.7336 81.3923 27.2889 81.3033 26.933C81.2838 26.855 81.2686 26.7856 81.2548 26.7228C81.2058 26.4992 81.1753 26.3603 81.0364 26.2214C80.9475 26.0435 80.7696 25.9546 80.5917 25.8656C80.4138 25.7766 80.1469 25.7766 79.7021 25.7766V25.3319H82.7266V29.4237C82.7266 29.9575 82.7266 30.4022 82.8155 30.758C82.835 30.8358 82.8502 30.9051 82.8639 30.9678L82.864 30.9683C82.913 31.1919 82.9435 31.3308 83.0824 31.4697C83.1713 31.6476 83.3492 31.7365 83.5271 31.8255C83.705 31.9144 83.9719 31.9144 84.4167 31.9144V32.3592L82.0149 32.8929C82.0149 32.8485 81.9927 32.7818 81.9594 32.6817ZM91.2663 25.1507C90.6436 25.1507 90.1099 25.3286 89.6652 25.5955C89.1314 25.8623 88.7757 26.2182 88.5088 26.574C88.4607 26.4295 88.4386 26.285 88.4144 26.1264C88.3938 25.9921 88.3717 25.8476 88.3309 25.6844C88.2937 25.5727 88.272 25.461 88.2529 25.3623L88.2529 25.3622C88.2264 25.2252 88.2047 25.1135 88.153 25.0618L85.4844 25.5955V26.0403C85.8402 26.0403 86.1071 26.0403 86.285 26.1292C86.4629 26.2182 86.6408 26.3071 86.7298 26.485C86.9077 26.6629 86.9966 26.8408 86.9966 27.1966C87.0856 27.5525 87.0856 27.9972 87.0856 28.5309V29.5984C87.0856 30.2211 87.0856 30.5769 86.9966 30.9327C86.9077 31.1996 86.8187 31.4664 86.7298 31.6443C86.6408 31.8222 86.4629 31.9112 86.285 32.0001C86.1071 32.0891 85.8402 32.0891 85.4844 32.0891V32.4449H89.932V32.0001C89.5762 32.0001 89.3093 32.0001 89.1314 31.9112C88.9535 31.8222 88.7757 31.7333 88.6868 31.5554C88.5978 31.3775 88.5088 31.1996 88.5088 30.8437C88.4199 30.4879 88.4199 30.0432 88.4199 29.5094V28.1751C88.4199 27.5525 88.5978 27.1077 89.1314 26.6629C89.6651 26.2182 90.1989 26.0403 90.7326 26.0403C91.2663 26.0403 91.7111 26.3071 91.9779 26.6629C92.2448 27.1077 92.4227 27.6414 92.4227 28.353V29.5984C92.4227 30.2211 92.4227 30.5769 92.3338 30.9327C92.2448 31.1996 92.1558 31.4664 92.0669 31.6443C91.9779 31.8222 91.8 31.9112 91.6221 32.0001C91.4442 32.0891 91.1774 32.0891 90.8215 32.0891V32.6228H95.4471V32.178C95.0913 32.178 94.8245 32.178 94.6466 32.0891C94.4686 32.0001 94.2907 31.9112 94.2018 31.7333C94.0239 31.5554 93.9349 31.2885 93.9349 31.0216C93.846 30.6659 93.846 30.2211 93.846 29.6875V29.6873V28.353C93.846 27.3746 93.6681 26.574 93.2233 26.0403C92.7785 25.4176 92.1558 25.1507 91.2663 25.1507ZM101.673 22.9098C101.673 22.376 101.673 21.9313 101.584 21.5755C101.584 21.3086 101.495 21.0417 101.317 20.8637C101.229 20.6858 101.051 20.5969 100.873 20.5079C100.695 20.419 100.428 20.419 99.9832 20.419V19.9742L103.008 19.4405V29.4033C103.008 29.937 103.008 30.3818 103.097 30.7376C103.116 30.8156 103.131 30.8851 103.145 30.9478C103.194 31.1714 103.224 31.3103 103.363 31.4492C103.452 31.627 103.63 31.716 103.808 31.8049L103.808 31.8051C103.986 31.894 104.252 31.894 104.608 31.894H104.609V32.3388L101.94 32.8726C101.94 32.8176 101.906 32.7285 101.859 32.6055C101.83 32.5296 101.796 32.4406 101.762 32.3388C101.721 32.2164 101.699 32.094 101.679 31.9802C101.655 31.8458 101.632 31.7234 101.584 31.6271C101.317 31.9829 100.962 32.3388 100.517 32.6056C100.072 32.8725 99.6273 32.9614 99.0936 32.9614C98.6489 32.9614 98.2041 32.8726 97.7593 32.6947C97.3146 32.5167 96.9587 32.2498 96.6029 31.894C96.2471 31.5382 95.9802 31.0935 95.8023 30.6487C95.6244 30.204 95.5355 29.6702 95.5355 29.1365C95.5355 28.6027 95.6244 28.1579 95.8023 27.6242C95.9802 27.1794 96.2471 26.7347 96.6029 26.3789C96.9587 26.0231 97.3146 25.7563 97.7593 25.5784C98.2041 25.4005 98.6489 25.3114 99.0936 25.3114C100.072 25.3114 100.962 25.7562 101.584 26.5568V22.9098H101.673ZM101.673 27.6242C101.495 27.0905 101.229 26.7347 100.873 26.3789C100.517 26.112 100.072 25.9341 99.6273 25.9341C98.8268 25.9341 98.293 26.201 97.9372 26.7347C97.5814 27.2684 97.3146 27.98 97.3146 28.9585C97.3146 29.8481 97.4925 30.5597 97.9372 31.1824C98.293 31.7161 98.9157 32.0719 99.6273 32.0719C100.072 32.0719 100.517 31.894 100.873 31.6271C101.229 31.3603 101.495 30.9155 101.673 30.3818V27.6242ZM109.679 31.46C109.768 32.2606 110.213 32.7053 111.014 32.7053C111.547 32.7053 111.992 32.5274 112.259 32.0827L111.992 31.7268C111.903 31.7268 111.814 31.8158 111.725 31.9048C111.636 31.9937 111.547 31.9937 111.458 31.9937C111.191 31.9937 111.014 31.7268 111.014 31.1931V27.9018C111.014 26.8344 110.836 26.1228 110.391 25.678C109.946 25.2332 109.234 24.9664 108.256 24.9664C107.633 24.9664 107.011 25.0553 106.477 25.4111C105.943 25.767 105.676 26.1228 105.676 26.6565C105.676 26.8344 105.676 27.0123 105.854 27.1902C106.032 27.2792 106.21 27.3681 106.388 27.3681C106.566 27.3681 106.655 27.3681 106.833 27.1902C106.922 27.0123 107.011 26.8344 107.011 26.6565C107.011 26.3896 107.1 26.1228 107.366 25.9449C107.633 25.767 107.9 25.678 108.167 25.678C108.701 25.678 109.057 25.767 109.234 26.1228C109.412 26.4786 109.501 27.1013 109.501 27.9018C109.232 27.9787 108.98 28.039 108.737 28.097C108.417 28.1733 108.114 28.2456 107.811 28.3466C107.732 28.3783 107.65 28.41 107.567 28.4422L107.566 28.4424L107.566 28.4426C107.181 28.591 106.769 28.7502 106.477 28.9693C106.121 29.2362 105.854 29.503 105.587 29.8588C105.321 30.2146 105.232 30.5705 105.232 31.0152C105.232 31.5489 105.409 31.9048 105.765 32.2606C106.121 32.5274 106.566 32.7053 107.1 32.7053C107.544 32.7053 107.989 32.6164 108.345 32.4385C108.79 32.2606 109.234 31.9048 109.679 31.46ZM106.922 30.7484C106.922 29.7699 107.811 29.0582 109.679 28.6135H109.768V30.8373C109.323 31.1931 108.968 31.46 108.701 31.6379C108.434 31.7268 108.167 31.8158 107.9 31.8158C107.633 31.8158 107.366 31.7269 107.189 31.5489C107.011 31.371 106.922 31.1042 106.922 30.7484ZM112.26 26.2083V25.6745C112.882 25.5856 113.238 25.2298 113.505 24.874C113.772 24.4292 113.95 23.8955 114.039 23.1838H114.75V25.4966H116.53V26.2083H114.75V30.478C114.75 31.5455 115.017 31.9902 115.64 31.9902C115.996 31.9902 116.441 31.7234 116.974 31.2786L117.33 31.6344C117.063 31.9902 116.707 32.2571 116.352 32.524C115.996 32.7908 115.551 32.8798 115.284 32.8798C114.662 32.8798 114.217 32.7019 113.95 32.2571C113.594 31.9013 113.416 31.2786 113.416 30.478V26.2083H112.26ZM117.952 32.0764V32.4322H122.578V31.9874C122.222 31.9874 121.955 31.9874 121.777 31.8984L121.777 31.8982C121.599 31.8093 121.421 31.7204 121.332 31.5426C121.154 31.3647 121.066 31.0978 121.066 30.8309C120.977 30.4751 120.977 30.0303 120.977 29.4966V25.049L117.952 25.5828V26.0275H117.953C118.309 26.0275 118.575 26.0275 118.753 26.1164C118.931 26.2053 119.109 26.2944 119.198 26.4723C119.375 26.6502 119.464 26.8281 119.464 27.1839C119.553 27.5397 119.553 27.9844 119.553 28.5181V28.5182V29.5857V29.5858C119.553 30.2084 119.553 30.5642 119.464 30.92C119.375 31.1868 119.286 31.4537 119.198 31.6316C119.109 31.8095 118.931 31.8985 118.753 31.9874C118.575 32.0764 118.308 32.0764 117.952 32.0764ZM120.265 23.003C120.532 23.003 120.71 22.9141 120.888 22.7362C121.066 22.5583 121.154 22.3804 121.154 22.0246C121.154 21.8467 121.066 21.5798 120.888 21.4019C120.71 21.224 120.532 21.1351 120.265 21.1351C119.998 21.1351 119.82 21.224 119.642 21.4019C119.464 21.5798 119.375 21.7578 119.375 22.0246C119.375 22.2915 119.464 22.5583 119.642 22.7362C119.82 22.9141 119.998 23.003 120.265 23.003ZM130.673 30.4858C130.495 30.9305 130.139 31.3752 129.783 31.731C129.427 32.0868 128.983 32.3538 128.449 32.5317C127.915 32.7096 127.381 32.7985 126.848 32.7985C126.314 32.7985 125.78 32.7096 125.247 32.5317C124.713 32.3538 124.357 32.0868 123.912 31.731C123.556 31.3752 123.201 30.9305 123.023 30.4858C122.845 30.041 122.667 29.5073 122.667 28.9735C122.667 28.4398 122.756 27.995 123.023 27.4612C123.201 27.0165 123.556 26.5718 123.912 26.216C124.268 25.8602 124.713 25.5933 125.247 25.4154C125.78 25.2375 126.314 25.1485 126.848 25.1485C127.381 25.1485 127.915 25.2375 128.449 25.4154C128.983 25.5933 129.427 25.8602 129.783 26.216C130.139 26.5718 130.495 27.0165 130.673 27.4612C130.851 27.906 131.029 28.4398 131.029 28.9735C130.94 29.5073 130.851 30.041 130.673 30.4858ZM128.716 26.7497C128.271 26.216 127.648 25.8602 126.848 25.8602C126.047 25.8602 125.424 26.127 125.069 26.7497C124.624 27.2834 124.446 28.084 124.446 28.9735C124.446 29.8631 124.624 30.5747 125.069 31.1974C125.513 31.8201 126.136 32.0869 126.848 32.0869C127.648 32.0869 128.271 31.8201 128.716 31.1974C129.161 30.6637 129.338 29.8631 129.338 28.9735C129.338 28.084 129.161 27.3724 128.716 26.7497ZM137.343 25.1507C136.721 25.1507 136.187 25.3286 135.742 25.5955C135.298 25.8623 134.853 26.2182 134.675 26.574C134.627 26.4295 134.605 26.2851 134.58 26.1265C134.56 25.9921 134.538 25.8476 134.497 25.6844C134.46 25.5727 134.438 25.4609 134.419 25.3622C134.392 25.2252 134.371 25.1135 134.319 25.0618L131.65 25.5955V26.0403C132.006 26.0403 132.273 26.0403 132.451 26.1292C132.629 26.2182 132.807 26.3071 132.896 26.485C133.074 26.6629 133.163 26.8408 133.163 27.1966C133.252 27.5525 133.252 27.9972 133.252 28.5309V29.5984C133.252 30.2211 133.252 30.5769 133.163 30.9327L133.162 30.9331C133.074 31.1998 132.985 31.4665 132.896 31.6443C132.807 31.8222 132.629 31.9112 132.451 32.0001C132.273 32.0891 132.006 32.0891 131.65 32.0891V32.4449H136.098V32.0001C135.742 32.0001 135.475 32.0001 135.298 31.9112C135.12 31.8222 134.942 31.7333 134.853 31.5554C134.764 31.3775 134.675 31.1996 134.675 30.8437C134.586 30.4879 134.586 30.0432 134.586 29.5094V28.1751C134.586 27.5525 134.764 27.1077 135.298 26.6629C135.831 26.2182 136.365 26.0403 136.899 26.0403C137.432 26.0403 137.877 26.3071 138.144 26.6629C138.411 27.1077 138.589 27.6414 138.589 28.353V29.5984C138.589 30.2211 138.589 30.5769 138.5 30.9327C138.411 31.1996 138.322 31.4664 138.233 31.6443C138.144 31.8222 137.966 31.9112 137.788 32.0001C137.61 32.0891 137.343 32.0891 136.988 32.0891V32.6228H141.524V32.178C141.168 32.178 140.902 32.178 140.724 32.0891C140.546 32.0001 140.368 31.9112 140.279 31.7333C140.101 31.5554 140.012 31.2885 140.012 31.0216C139.923 30.6659 139.923 30.2212 139.923 29.6876V29.6873V28.353C139.923 27.3746 139.745 26.574 139.3 26.0403C138.856 25.4176 138.233 25.1507 137.343 25.1507Z" fill="#2A6EBB"/>
</svg>
