<svg width="32" height="32" viewBox="0 0 32 32" fill="none" xmlns="http://www.w3.org/2000/svg">
<g clip-path="url(#clip0_797_4081)">
<path fill-rule="evenodd" clip-rule="evenodd" d="M21.013 6.184C20.9629 6.53448 20.9011 6.84969 20.8413 7.15448C20.6465 8.14778 20.4734 9.03034 20.7997 10.6621C21.0924 12.223 21.7422 13.0698 22.361 13.8763C23.0948 14.8327 23.7851 15.7324 23.7851 17.699C24.8513 15.9931 25.7043 13.6475 25.7043 11.0886C25.7043 7.46345 24.2116 4.26483 21.6527 2.13242C25.7043 4.69131 27.6235 9.16939 26.5573 13.6475C25.9176 16.6328 24.4249 19.1917 22.2925 20.4712C21.2262 21.1109 20.7997 21.3242 19.7335 21.5374V21.7506L20.16 21.9639H20.3733C22.0792 20.8977 24.4249 20.0447 26.7705 19.6182C27.6235 19.6182 29.3294 19.1917 29.1162 17.9123C28.9029 17.4858 28.9029 17.0593 28.9029 16.6328C28.7463 16.3196 29.0498 16.1214 29.3065 15.9538C29.3993 15.8931 29.486 15.8365 29.5427 15.7799C29.7559 15.3534 29.5426 15.1402 29.3294 14.9269L29.3294 14.9269V14.7137C29.7559 14.7137 29.9691 14.2872 29.9691 14.0739C29.9465 14.0288 29.9216 13.9812 29.8954 13.9315L29.8953 13.9313C29.675 13.5117 29.3747 12.9399 29.7559 12.368C29.9692 11.9415 30.1824 11.9415 30.6089 11.9415C31.0353 11.7283 31.2486 11.3018 31.0353 11.0886C30.6089 10.5555 30.2358 10.0758 29.8626 9.59601L29.8625 9.59587C29.4894 9.11608 29.1162 8.63628 28.6897 8.10318C28.5066 7.73691 28.5987 7.33133 28.6959 6.90331C28.825 6.33455 28.9631 5.72617 28.4764 5.1178C26.1308 2.5589 22.9322 0.639725 18.6673 0L18.4541 0.213242C18.6673 1.27945 19.3071 1.91917 19.9468 2.5589C20.7998 3.6251 21.2262 4.90456 21.013 6.184ZM29.3287 25.816C28.432 25.278 27.6862 25.4941 26.9643 25.7033L26.9642 25.7033C26.8278 25.7428 26.6922 25.7821 26.5566 25.816C25.2771 26.2425 23.9977 25.816 22.9315 25.1763C22.6649 24.9631 22.425 24.7498 22.1851 24.5366C21.4654 23.8968 20.7457 23.2571 19.3064 22.6174C17.7502 22.1311 16.7264 22.2658 15.7494 22.3944C14.5842 22.5477 13.4854 22.6923 11.6297 21.7644H11.4164V21.9777C12.2694 23.8969 13.9753 25.6028 16.1077 27.0955C19.0931 29.0146 22.7182 29.2279 25.9169 27.9484C21.652 30.0809 16.9607 29.6544 13.5488 26.4557C11.2032 24.3233 9.92373 21.7644 9.92373 19.2055V19.2055C9.92373 18.1393 9.92373 17.4996 10.3502 16.4334H10.137L9.71048 16.6466V16.8599C9.71048 19.632 9.28399 22.8306 8.00454 25.816C7.79129 26.2425 8.00455 26.669 8.21779 26.8822C8.47605 27.1405 8.65611 27.1642 8.85268 27.19C8.98073 27.2068 9.11577 27.2246 9.284 27.3087C9.71048 27.522 9.92373 27.9484 9.92373 28.3749L10.5635 28.5882L10.7767 29.0146L11.8429 29.2279C11.9153 29.3726 11.9385 29.5665 11.9627 29.7678C12.0096 30.1597 12.06 30.5797 12.4826 30.7206C12.8055 30.7206 13.1589 30.6595 13.5313 30.5951C14.1427 30.4894 14.8054 30.3748 15.468 30.5073C16.0011 30.614 16.4276 30.8805 16.8541 31.1471C17.2806 31.4136 17.707 31.6802 18.2401 31.7868C18.8799 32 19.7328 32 20.3726 32C23.3579 30.9338 26.7698 29.2279 29.3287 25.816ZM3.31107 20.0776C3.09783 20.9306 2.88459 21.7835 1.81839 22.4232C0.325697 18.3717 0.538952 14.9598 2.03164 11.7612C2.26011 11.3042 2.85572 10.9085 3.4579 10.5084C3.97985 10.1616 4.50673 9.81154 4.80376 9.4155C5.59455 8.15024 5.79884 7.7061 6.02562 7.21306C6.1046 7.04134 6.18631 6.86369 6.29648 6.64336C6.50972 6.21687 7.14944 6.21687 7.78917 6.64336C8.21565 7.06984 8.64212 6.21688 8.64212 6.00363C8.85536 5.57715 9.49509 5.57715 9.70833 6.00363L9.92158 5.79039C9.92158 5.36391 10.3481 4.93743 10.7745 4.93743C10.9878 5.15067 11.6275 5.36391 11.8407 4.93743C12.0036 4.77453 12.1043 4.64274 12.1903 4.53018C12.3295 4.34805 12.4301 4.21625 12.6937 4.08446C13.7599 3.65798 14.8261 4.72419 15.2526 5.36391C16.7453 7.28309 18.6645 8.77577 20.5837 9.84198V10.0552V10.695H20.3704C19.6075 9.93201 19.1858 9.68088 18.3422 9.17857C18.2427 9.1193 18.1373 9.05654 18.0248 8.98902C15.6791 7.70957 12.907 7.49633 9.92158 8.56254C5.44351 10.0552 2.67136 13.8936 2.45812 18.7981C2.88461 15.3863 4.80376 12.4009 8.00239 10.695C10.1348 9.4155 12.4805 8.77577 14.6129 8.98902V9.20226C12.898 10.2312 12.4703 11.2602 12.0153 12.3548C11.6216 13.3019 11.2075 14.2982 9.92158 15.3863C8.81012 16.2199 7.9702 16.5103 7.16594 16.7885C6.73578 16.9373 6.31582 17.0825 5.86997 17.3054C4.59052 17.7319 3.52432 18.7981 3.31108 20.0776L3.31107 20.0776Z" fill="black"/>
</g>
<defs>
<clipPath id="clip0_797_4081">
<rect width="32" height="32" fill="white"/>
</clipPath>
</defs>
</svg>