<svg width="243" height="41" viewBox="0 0 243 41" fill="none" xmlns="http://www.w3.org/2000/svg">
<path fill-rule="evenodd" clip-rule="evenodd" d="M216 35.3816V35.3817C216 36.8261 216 37.3816 215.556 38.0483C214.889 39.3816 213.111 40.6038 209.889 40.6038C207.333 40.6038 205.556 39.9372 204.556 38.6038L204.539 38.5777C203.996 37.7082 203.778 37.3597 203.778 35.1594V24.2705H208V34.8261C208 36.2705 208.444 37.2705 209.889 37.2705C211.333 37.2705 211.778 36.4927 211.778 34.8261V24.2705H215.889V35.3816H216ZM224.999 40.3816V33.6038H221.666V40.3816H217.555V24.2705H221.666V30.1594H224.999V24.2705H229.11V40.3816H224.999ZM235.667 34.8261L238.556 40.3816H242.778V24.2705H238.889V29.2705C238.889 30.3816 238.889 31.9372 239 32.9372C238.667 31.8261 238.111 30.7151 237.667 29.8262L237.667 29.8261L234.778 24.2705H230.778V40.4927H234.667V35.9372C234.667 33.9372 234.556 32.4927 234.445 31.8261C234.778 32.8261 235.222 33.9372 235.667 34.8261Z" fill="white"/>
<path fill-rule="evenodd" clip-rule="evenodd" d="M191.667 27.376C191.641 27.5586 191.609 27.7229 191.578 27.8817C191.476 28.3993 191.386 28.8591 191.556 29.7094C191.709 30.5227 192.047 30.9639 192.37 31.3842C192.752 31.8825 193.112 32.3513 193.112 33.376C193.667 32.4871 194.112 31.2649 194.112 29.9316C194.112 28.0427 193.334 26.376 192.001 25.2649C194.112 26.5983 195.112 28.9316 194.556 31.2649C194.223 32.8205 193.445 34.1538 192.334 34.8205C191.778 35.1538 191.556 35.2649 191.001 35.376V35.4871L191.223 35.5983H191.334C192.223 35.0427 193.445 34.5983 194.667 34.376C195.112 34.376 196.001 34.1538 195.89 33.4871C195.778 33.2649 195.778 33.0427 195.778 32.8205C195.697 32.6573 195.855 32.554 195.989 32.4666L195.989 32.4666C196.037 32.435 196.082 32.4055 196.112 32.376C196.223 32.1538 196.112 32.0427 196.001 31.9316L196.001 31.9316V31.8205C196.223 31.8205 196.334 31.5983 196.334 31.4871C196.322 31.4636 196.309 31.4388 196.296 31.4129L196.296 31.4128C196.181 31.1942 196.024 30.8962 196.223 30.5983C196.334 30.376 196.445 30.376 196.667 30.376C196.89 30.2649 197.001 30.0427 196.89 29.9316C196.667 29.6538 196.473 29.4039 196.278 29.1539L196.278 29.1538C196.084 28.9038 195.89 28.6538 195.667 28.376C195.572 28.1852 195.62 27.9739 195.671 27.7508C195.738 27.4545 195.81 27.1375 195.556 26.8205C194.334 25.4871 192.667 24.4871 190.445 24.1538L190.334 24.2649C190.445 24.8205 190.778 25.1538 191.112 25.4871C191.556 26.0427 191.778 26.7094 191.667 27.376ZM196 37.6057C195.533 37.3253 195.144 37.438 194.768 37.5469C194.697 37.5675 194.626 37.588 194.555 37.6057C193.889 37.8279 193.222 37.6057 192.667 37.2723C192.528 37.1612 192.403 37.0501 192.278 36.939C191.903 36.6057 191.528 36.2723 190.778 35.939C189.967 35.6856 189.433 35.7558 188.924 35.8228C188.317 35.9027 187.745 35.9781 186.778 35.4946H186.667V35.6057C187.111 36.6057 188 37.4946 189.111 38.2724C190.667 39.2724 192.555 39.3835 194.222 38.7168C192 39.8279 189.555 39.6057 187.778 37.939C186.555 36.8279 185.889 35.4946 185.889 34.1612V34.1612C185.889 33.6057 185.889 33.2723 186.111 32.7168H186L185.778 32.8279V32.939C185.778 34.3835 185.555 36.0501 184.889 37.6057C184.778 37.8279 184.889 38.0501 185 38.1612C185.134 38.2958 185.228 38.3081 185.331 38.3216C185.397 38.3304 185.468 38.3396 185.555 38.3835C185.778 38.4946 185.889 38.7168 185.889 38.939L186.222 39.0501L186.333 39.2723L186.889 39.3835C186.927 39.4589 186.939 39.5599 186.951 39.6648C186.976 39.869 187.002 40.0878 187.222 40.1612C187.39 40.1612 187.575 40.1294 187.769 40.0959L187.769 40.0958C188.087 40.0408 188.432 39.9811 188.778 40.0501C189.055 40.1057 189.278 40.2446 189.5 40.3835C189.722 40.5223 189.944 40.6612 190.222 40.7168C190.555 40.8279 191 40.8279 191.333 40.8279C192.889 40.2723 194.667 39.3835 196 37.6057ZM182.443 34.6158C182.332 35.0603 182.221 35.5047 181.666 35.838C180.888 33.7269 180.999 31.9491 181.777 30.2825C181.896 30.0444 182.206 29.8382 182.52 29.6297C182.792 29.449 183.066 29.2666 183.221 29.0603C183.633 28.401 183.74 28.1696 183.858 27.9127C183.899 27.8232 183.941 27.7306 183.999 27.6158C184.11 27.3936 184.443 27.3936 184.777 27.6158C184.999 27.838 185.221 27.3936 185.221 27.2825C185.332 27.0603 185.666 27.0603 185.777 27.2825L185.888 27.1714C185.888 26.9491 186.11 26.7269 186.332 26.7269C186.443 26.838 186.777 26.9491 186.888 26.7269C186.973 26.642 187.025 26.5734 187.07 26.5147C187.142 26.4198 187.195 26.3511 187.332 26.2825C187.888 26.0603 188.443 26.6158 188.666 26.9491C189.443 27.9491 190.443 28.7269 191.443 29.2825V29.3936V29.7269H191.332C190.935 29.3294 190.715 29.1985 190.275 28.9368C190.224 28.9059 190.169 28.8732 190.11 28.838C188.888 28.1714 187.443 28.0603 185.888 28.6158C183.554 29.3936 182.11 31.3936 181.999 33.9491C182.221 32.1714 183.221 30.6158 184.888 29.7269C185.999 29.0603 187.221 28.7269 188.332 28.838V28.9491C187.439 29.4853 187.216 30.0214 186.979 30.5918C186.774 31.0853 186.558 31.6044 185.888 32.1714C185.309 32.6057 184.871 32.7571 184.452 32.902C184.228 32.9795 184.009 33.0552 183.777 33.1714C183.11 33.3936 182.554 33.9491 182.443 34.6158L182.443 34.6158Z" fill="white"/>
<path fill-rule="evenodd" clip-rule="evenodd" d="M23.0004 17.2948V16.7392C23.4448 16.7392 23.7782 16.7392 24.0004 16.6281C24.2226 16.517 24.4448 16.4059 24.5559 16.1837C24.667 15.9614 24.7782 15.6281 24.7782 15.2948C24.7782 15.095 24.8006 14.8728 24.8253 14.6281V14.6281V14.628C24.8556 14.3284 24.8893 13.9951 24.8893 13.6281V12.0725C24.8893 11.1837 24.7782 10.517 24.4448 9.96143C24.1115 9.40587 23.667 9.18365 23.0004 9.18365C22.3337 9.18365 21.667 9.40587 21.1115 9.96143C20.5559 10.517 20.2226 11.0725 20.2226 11.8503V13.517V13.517C20.2226 14.1837 20.2226 14.8503 20.3337 15.1837C20.3337 15.6281 20.4448 15.8503 20.5559 16.0725C20.667 16.2948 20.7782 16.4059 21.0004 16.517C21.2226 16.6281 21.4448 16.6281 21.8893 16.6281V17.1837H16.4448V16.6281C16.8893 16.6281 17.2226 16.6281 17.5559 16.517C17.7782 16.4059 18.0004 16.2948 18.1115 16.0725C18.2226 15.8503 18.3337 15.517 18.4448 15.1837C18.4448 15.0518 18.4622 14.8851 18.4832 14.6837C18.5154 14.3759 18.5559 13.987 18.5559 13.517V5.29476C18.5559 4.62809 18.5559 4.07254 18.4448 3.62809C18.4448 3.29476 18.3337 2.96143 18.1115 2.7392C18.0004 2.51698 17.7782 2.40587 17.5559 2.29476C17.3337 2.18365 17.0004 2.18365 16.4448 2.18365V1.62809L20.2226 0.961426V9.96143C20.667 9.40587 21.1115 8.96143 21.667 8.62809C22.2226 8.29476 22.8893 8.07254 23.5559 8.07254C24.667 8.07254 25.4448 8.40587 25.8893 9.18365C26.3337 9.85032 26.667 10.8503 26.667 12.0725V13.7392C26.667 14.4059 26.667 14.9614 26.7782 15.4059C26.8025 15.5033 26.8215 15.59 26.8387 15.6684L26.8387 15.6685C26.8999 15.9478 26.938 16.1213 27.1115 16.2948C27.2226 16.517 27.4448 16.6281 27.667 16.7392C27.8893 16.8503 28.2226 16.8503 28.7782 16.8503V17.4059H23.0004V17.2948ZM15.7778 4.95253H15.2222L15.1111 4.39697C14.8889 3.61919 14.6667 3.06364 14.3333 2.84142C14 2.61919 13.3333 2.39697 12.2222 2.39697H8.88889V13.6192C8.88889 14.2859 8.88889 14.8414 9 15.2859C9.11112 15.7303 9.22223 15.9525 9.33334 16.1748C9.55556 16.397 9.77778 16.5081 10 16.6192C10.3333 16.7303 10.7778 16.7303 11.3333 16.7303H11.3333V17.2859H4.44445V16.7303H4.44446C5.00001 16.7303 5.44445 16.7303 5.77778 16.6192C6.11111 16.5081 6.33334 16.397 6.44445 16.1748C6.66667 15.9525 6.77778 15.6192 6.77778 15.2859C6.88889 14.8414 6.88889 14.397 6.88889 13.6192V2.39697H3.55556C2.44445 2.39697 1.77778 2.50808 1.44445 2.84142C1.11111 3.06364 0.888889 3.61919 0.666667 4.39697L0.555556 4.95253H0L0.222222 1.39697H15.5556L15.7778 4.95253ZM31.7773 15.6151C31.2217 14.9485 30.8884 14.1707 30.8884 13.0596C30.8884 12.7262 30.8884 12.504 31.1106 12.2818H37.2217C37.3328 11.9485 37.3328 11.7262 37.3328 11.3929C37.3328 10.504 36.9995 9.72624 36.3328 9.05957C35.5551 8.3929 34.7773 8.05957 33.7773 8.05957C33.2217 8.05957 32.6662 8.17068 32.1106 8.3929C31.5551 8.61513 30.9995 8.94846 30.5551 9.3929C30.1106 9.83735 29.6662 10.3929 29.444 10.9485C29.1106 11.504 28.9995 12.1707 28.9995 12.8373C28.9995 13.504 29.1106 14.1707 29.3328 14.7262C29.5551 15.2818 29.8884 15.8373 30.3328 16.2818C30.6662 16.7262 31.2217 17.0596 31.7773 17.2818C32.3328 17.504 32.9995 17.6151 33.6662 17.6151C34.3328 17.6151 35.1106 17.504 35.7773 17.1707C36.5551 16.8373 37.1106 16.504 37.5551 15.9485L37.1106 15.3929C36.7773 15.7262 36.3328 16.0596 35.7773 16.2818C35.2217 16.504 34.7773 16.6151 34.3328 16.6151C33.2217 16.6151 32.3328 16.2818 31.7773 15.6151ZM35.3742 10.9833C35.3519 11.0596 35.3328 11.1247 35.3328 11.1707H31.2217C31.3328 10.504 31.6662 9.94846 32.1106 9.61513C32.5551 9.28179 32.9995 9.05957 33.5551 9.05957C34.2217 9.05957 34.6662 9.17068 34.9995 9.50401C35.3328 9.83735 35.444 10.1707 35.444 10.6151C35.444 10.7453 35.4058 10.8755 35.3742 10.9833ZM53.7771 2.61919C54.7771 3.50808 55.2216 4.50808 55.2216 5.84142C55.2216 7.17475 54.7771 8.17475 53.7771 9.06364C52.7771 9.95253 51.4437 10.2859 49.777 10.2859H47.5548V13.6192C47.5548 14.2859 47.5549 14.8414 47.666 15.2859C47.7771 15.6192 47.8882 15.9525 47.9994 16.1748C48.0891 16.3542 48.3236 16.4612 48.5276 16.5542C48.5763 16.5764 48.6231 16.5978 48.6659 16.6192C48.9992 16.7303 49.4437 16.7303 49.9993 16.7303V17.2859H43.1104V16.7303C43.6659 16.7303 44.1104 16.7303 44.4437 16.6192C44.777 16.5081 44.9992 16.397 45.1104 16.1748C45.2215 15.9525 45.3327 15.6192 45.4438 15.2859C45.5548 14.9529 45.5548 14.3981 45.5548 13.6215V13.6192V5.06364V5.06165C45.5548 4.39587 45.5548 3.84097 45.4438 3.39697C45.3328 2.95297 45.2217 2.73075 45.1107 2.50874L45.1104 2.50808C45.0206 2.32865 44.786 2.22166 44.5821 2.12862C44.5334 2.10643 44.4865 2.08504 44.4437 2.06364C44.1104 1.95253 43.6659 1.95253 43.1104 1.95253V1.39697H49.777C51.4437 1.39697 52.7771 1.84142 53.7771 2.61919ZM52.1105 8.39697C52.666 7.73031 52.8881 6.95253 52.8881 5.84142C52.8881 4.84142 52.666 3.95253 52.1105 3.28586C51.5549 2.61919 50.7771 2.28586 49.666 2.28586H47.4438V9.28586H49.666C50.7771 9.39697 51.5549 9.06364 52.1105 8.39697ZM63.3329 10.821C63.6662 10.821 63.9995 10.7099 64.1106 10.4877C64.2217 10.2655 64.3329 9.93213 64.444 9.59879C64.444 9.26546 64.2217 8.82102 63.8884 8.48768C63.5551 8.15435 63.1106 7.93213 62.444 7.93213C61.8884 7.93213 61.444 8.15435 60.8884 8.48768C60.444 8.82102 59.9995 9.26546 59.7773 9.82102C59.7171 9.64056 59.6896 9.46009 59.6593 9.262C59.6336 9.0942 59.606 8.91374 59.5551 8.70991C59.5085 8.57029 59.4815 8.43067 59.4576 8.30738C59.4245 8.13632 59.3974 7.9967 59.3328 7.93213L55.9995 8.5988V9.04324C56.444 9.04324 56.7773 9.04324 56.9995 9.15435C57.2217 9.26546 57.444 9.37657 57.5551 9.59879C57.7773 9.82102 57.8884 10.0432 57.8884 10.4877C57.9995 10.9321 57.9995 11.4877 57.9995 12.1543V13.4876C57.9995 14.2654 57.9995 14.7098 57.8884 15.1543C57.7773 15.4876 57.6662 15.821 57.5551 16.0432C57.444 16.2654 57.2217 16.3765 56.9995 16.4876C56.7773 16.5987 56.444 16.5987 55.9995 16.5987V17.1543H61.7773V16.5987C61.3328 16.5987 60.9995 16.5987 60.7773 16.4876C60.5551 16.3765 60.3329 16.2654 60.2217 16.0432C59.9995 15.821 59.8884 15.4876 59.8884 15.1543C59.7773 14.7099 59.7773 14.1543 59.7773 13.4877V13.4876V12.0432C59.7773 11.1544 59.9995 10.3766 60.444 9.82102C60.8884 9.26546 61.2217 8.93213 61.6662 8.93213C62.2217 8.93213 62.444 9.26546 62.444 9.82102C62.444 10.0432 62.444 10.2655 62.6662 10.4877C62.8884 10.7099 63.1106 10.821 63.3329 10.821ZM65.1108 17.1648V16.7204C65.5553 16.7204 65.8886 16.7204 66.1108 16.6093C66.3331 16.4981 66.5553 16.387 66.6664 16.1648C66.7775 15.9426 66.8886 15.6094 66.9997 15.2761L66.9997 15.2759C67.1108 14.8315 67.1108 14.387 67.1108 13.6093V12.2759C67.1108 11.6093 67.1108 11.0537 66.9997 10.6093C66.9997 10.1648 66.8886 9.9426 66.6664 9.72037C66.5553 9.49815 66.3331 9.38704 66.1108 9.27593C65.8886 9.16482 65.5553 9.16482 65.1108 9.16482V8.60926L68.8886 7.9426V13.4981C68.8886 14.1648 68.8886 14.7204 68.9997 15.1648C68.9997 15.4981 69.1108 15.8315 69.3331 16.0537C69.4442 16.2759 69.6664 16.387 69.8886 16.4981C70.1108 16.6093 70.4442 16.6093 70.8886 16.6093V17.1648H65.1108ZM68.7775 5.05371C68.5553 5.27593 68.3331 5.38704 67.9997 5.38704C67.6664 5.38704 67.4442 5.27593 67.2219 5.05371C66.9997 4.83149 66.8886 4.49815 66.8886 4.16482C66.8886 3.83149 66.9997 3.60927 67.2219 3.38704C67.4442 3.16482 67.6664 3.05371 67.9997 3.05371C68.3331 3.05371 68.5553 3.16482 68.7775 3.38704C68.9997 3.60927 69.1108 3.9426 69.1108 4.16482C69.1108 4.49815 68.9997 4.83149 68.7775 5.05371ZM78.9991 7.93213C78.2213 7.93213 77.5546 8.15435 76.9991 8.48768C76.4435 8.93213 75.888 9.37657 75.5546 9.82102C75.4945 9.64055 75.4669 9.46008 75.4366 9.26199C75.411 9.09418 75.3834 8.91373 75.3324 8.70991C75.2859 8.57033 75.2589 8.43074 75.235 8.30748L75.2349 8.30738C75.2018 8.13632 75.1748 7.9967 75.1102 7.93213L71.7769 8.5988V9.04324C72.2213 9.04324 72.5546 9.04324 72.7769 9.15435C72.9991 9.26546 73.2213 9.37657 73.3324 9.5988C73.5546 9.82102 73.6657 10.0432 73.6657 10.4877C73.7769 10.9321 73.7769 11.4877 73.7769 12.1543V13.4876C73.7769 14.2654 73.7769 14.7099 73.6657 15.1543C73.5546 15.4876 73.4435 15.821 73.3324 16.0432C73.2213 16.2654 72.9991 16.3765 72.7769 16.4876C72.5546 16.5987 72.2213 16.5987 71.7769 16.5987V17.1543H77.3324V16.5987C76.888 16.5987 76.5546 16.5987 76.3324 16.4876C76.1102 16.3765 75.888 16.2654 75.7769 16.0432C75.6658 15.821 75.5546 15.4876 75.5546 15.1543C75.4435 14.7099 75.4435 14.1543 75.4435 13.4876V11.821C75.4435 11.0432 75.6658 10.4877 76.3324 9.93213C76.9991 9.37657 77.6657 9.15435 78.3324 9.15435C78.9991 9.15435 79.5546 9.48769 79.888 9.93213C80.2213 10.4877 80.4435 11.1544 80.4435 12.0432V13.5987C80.4435 14.3765 80.4435 14.821 80.3324 15.2654C80.2213 15.5987 80.1102 15.9321 79.9991 16.1543C79.888 16.3765 79.6657 16.4876 79.4435 16.5987C79.2213 16.7099 78.888 16.7099 78.4435 16.7099V17.2654H84.2213V16.7099C83.7769 16.7099 83.4435 16.7099 83.2213 16.5987C82.9991 16.4876 82.7769 16.3765 82.6658 16.1543C82.4435 15.9321 82.3324 15.5987 82.3324 15.2654C82.2213 14.821 82.2213 14.2655 82.2213 13.5989V13.5987V11.9321C82.2213 10.7099 81.9991 9.70991 81.4435 9.04324C80.888 8.26546 80.1102 7.93213 78.9991 7.93213ZM87.4435 10.0528C86.9991 10.8306 86.7768 11.8306 86.7768 13.0528C86.7768 14.164 86.9991 15.0528 87.5546 15.6084C88.1102 16.2751 88.888 16.4973 89.888 16.4973C90.3324 16.4973 90.7768 16.3862 91.2213 16.164C91.6657 15.9417 92.1102 15.6084 92.5546 15.2751L92.9991 15.8306C92.5546 16.3862 91.888 16.8306 91.2213 17.164C90.5546 17.4973 89.888 17.6084 89.2213 17.6084C87.888 17.6084 86.7769 17.164 85.9991 16.2751C85.2213 15.3862 84.7769 14.2751 84.7769 12.9417C84.7769 12.164 84.888 11.4972 85.2213 10.8306C85.4435 10.1639 85.888 9.60834 86.3324 9.1639C86.7768 8.71946 87.2213 8.38612 87.7769 8.1639C88.3324 7.94168 88.7769 7.83057 89.3324 7.83057C90.3324 7.83057 91.1102 8.05279 91.5546 8.38612C91.6031 8.46682 91.6515 8.54517 91.6989 8.62187L91.6993 8.62258L91.6995 8.6229C91.9781 9.07374 92.2213 9.46718 92.2213 9.94168C92.2213 10.275 92.1102 10.4972 91.9991 10.7195C91.7769 10.9417 91.4435 11.0528 91.1102 11.0528C90.888 11.0528 90.5546 10.9417 90.4435 10.7195C90.2213 10.4972 90.1102 10.275 90.1102 9.94168C90.1102 9.49723 89.9991 9.27501 89.888 9.05279C89.6657 8.83057 89.4435 8.83057 89.2213 8.83057C88.4435 8.83057 87.888 9.27501 87.4435 10.0528ZM96.3334 15.6151C95.7779 14.9485 95.4446 14.1707 95.4446 13.0596C95.4446 12.7262 95.4446 12.504 95.5557 12.2818H101.778C101.889 11.9485 101.889 11.7262 101.889 11.3929C101.889 10.504 101.556 9.72624 100.889 9.05957C100.111 8.3929 99.3334 8.05957 98.3334 8.05957C97.7779 8.05957 97.2223 8.17068 96.6668 8.3929C96.1112 8.61513 95.5557 8.94846 95.1112 9.3929C94.6668 9.83735 94.2223 10.3929 94.0001 10.9485C93.6668 11.504 93.5557 12.1707 93.5557 12.8373C93.5557 13.504 93.6668 14.1707 93.889 14.7262C94.1112 15.2818 94.4446 15.8373 94.889 16.2818C95.2223 16.7262 95.7779 17.0596 96.3334 17.2818C96.889 17.504 97.5557 17.6151 98.2223 17.6151C98.889 17.6151 99.6668 17.504 100.333 17.1707C101.111 16.8373 101.667 16.504 102.111 15.9485L101.667 15.3929C101.333 15.7262 100.889 16.0596 100.333 16.2818C99.7779 16.504 99.3334 16.6151 98.889 16.6151C97.7779 16.6151 96.889 16.2818 96.3334 15.6151ZM99.9304 10.9833C99.9081 11.0596 99.889 11.1247 99.889 11.1707H95.7779C95.889 10.504 96.2223 9.94846 96.6668 9.61513C97.1112 9.28179 97.5557 9.05957 98.1112 9.05957C98.7779 9.05957 99.2223 9.17068 99.5557 9.50401C99.889 9.83735 100 10.1707 100 10.6151C100 10.7453 99.962 10.8755 99.9304 10.9833ZM108.555 16.8373C107.999 17.3929 107.221 17.6151 106.444 17.6151C106.11 17.6151 105.777 17.6151 105.555 17.504C105.488 17.4704 105.41 17.4367 105.325 17.4C105.131 17.3154 104.898 17.2145 104.666 17.0596C104.333 16.8373 104.11 16.8373 103.999 16.8373C103.777 16.8373 103.666 17.1707 103.666 17.7262H103.11V13.8373H103.666C103.666 14.504 103.888 15.1707 104.444 15.8373C104.999 16.504 105.666 16.8373 106.444 16.8373C106.888 16.8373 107.221 16.7262 107.444 16.3929C107.666 16.1707 107.888 15.8373 107.888 15.3929C107.888 15.0596 107.777 14.8373 107.555 14.504C107.333 14.2818 106.999 13.9485 106.444 13.7262L104.999 12.9485C104.444 12.6151 103.999 12.2818 103.666 11.7262C103.444 11.3929 103.333 10.8373 103.333 10.3929C103.333 9.72624 103.555 9.17068 104.11 8.72624C104.666 8.28179 105.221 8.05957 105.888 8.05957C106.221 8.05957 106.555 8.05957 106.888 8.17068C106.999 8.22624 107.138 8.28179 107.277 8.33735C107.416 8.3929 107.555 8.44846 107.666 8.50401C107.777 8.61513 107.888 8.61513 107.999 8.61513C108.11 8.61513 108.221 8.3929 108.221 8.05957H108.777V11.1707H108.221C108.221 10.6151 107.999 10.0596 107.666 9.61513C107.333 9.17068 106.777 8.94846 106.221 8.94846C105.333 8.94846 104.888 9.28179 104.888 10.0596C104.888 10.3929 104.999 10.6151 105.221 10.8373C105.384 11 105.666 11.1627 106.023 11.369C106.154 11.4445 106.295 11.5258 106.444 11.6151L107.666 12.2818C108.221 12.6151 108.666 12.9485 108.999 13.3929C109.333 13.8373 109.444 14.2818 109.444 14.7262C109.333 15.6151 109.11 16.3929 108.555 16.8373ZM113.777 17.5987C114.555 17.5987 115.333 17.3765 115.888 16.821C116.555 16.3765 116.777 15.5987 116.777 14.5987C116.777 14.1543 116.666 13.7099 116.333 13.2654C116 12.821 115.555 12.4876 115 12.1543L113.777 11.4877C113.628 11.3984 113.488 11.317 113.357 11.2415C113 11.0353 112.718 10.8726 112.555 10.7099C112.333 10.4877 112.222 10.2655 112.222 9.93213C112.222 9.15435 112.666 8.82102 113.555 8.82102C114.111 8.82102 114.666 9.04324 115 9.48768C115.333 9.93213 115.555 10.4877 115.555 11.0432H116.111V7.93213H115.555C115.555 8.26546 115.444 8.48768 115.333 8.48768C115.333 8.48768 115.222 8.48768 115 8.37657C114.888 8.32102 114.75 8.26546 114.611 8.20991C114.472 8.15435 114.333 8.0988 114.222 8.04324C113.888 7.93213 113.666 7.93213 113.222 7.93213C112.555 7.93213 112 8.15435 111.444 8.5988C110.888 9.04324 110.666 9.5988 110.666 10.2655C110.666 10.7099 110.777 11.2655 111.111 11.7099C111.333 12.2654 111.777 12.5987 112.333 12.9321L113.777 13.7098C114.333 13.9321 114.666 14.2654 114.888 14.4876C115.111 14.821 115.222 15.0432 115.222 15.3765C115.222 15.821 115 16.1543 114.777 16.3765C114.555 16.7098 114.222 16.821 113.777 16.821C113 16.821 112.333 16.4876 111.777 15.821C111.222 15.1543 110.999 14.4876 110.999 13.821H110.444V17.7098H110.999C110.999 17.1543 111.111 16.821 111.333 16.821C111.444 16.821 111.666 16.821 112 17.0432C112.232 17.1981 112.464 17.299 112.659 17.3836L112.659 17.3837C112.744 17.4204 112.821 17.454 112.888 17.4876C113.111 17.5987 113.444 17.5987 113.777 17.5987ZM125.666 13.6192C125.666 14.2859 125.666 14.8414 125.777 15.2859C125.889 15.7303 126 15.9525 126.111 16.1747C126.333 16.397 126.555 16.5081 126.777 16.6192C127.111 16.7303 127.555 16.7303 128.111 16.7303V17.2859H122.333V16.7303C122.889 16.7303 123.333 16.7303 123.666 16.6192C124 16.5081 124.222 16.397 124.333 16.1747C124.444 15.9526 124.555 15.6193 124.666 15.2861L124.666 15.2859C124.777 14.9525 124.777 14.397 124.777 13.6192V5.06363C124.777 4.39697 124.777 3.84141 124.666 3.39697C124.555 2.95253 124.444 2.7303 124.333 2.50808C124.243 2.32865 124.009 2.22166 123.805 2.12862C123.756 2.10643 123.709 2.08503 123.666 2.06364C123.333 1.95253 122.889 1.95253 122.333 1.95253V1.39697H126.666L132 14.2859L137.333 1.39697H141.333V1.95253C140.777 1.95253 140.333 1.95253 140 2.06364C139.666 2.17475 139.444 2.28586 139.333 2.50808C139.222 2.7303 139.111 2.95253 139 3.39697C138.889 3.73026 138.889 4.28571 138.889 5.06331V5.06363V13.6192V13.6195C138.889 14.286 138.889 14.8415 139 15.2859C139.111 15.6192 139.222 15.9525 139.333 16.1747C139.423 16.3542 139.657 16.4612 139.861 16.5542C139.91 16.5764 139.957 16.5978 140 16.6192C140.333 16.7303 140.777 16.7303 141.333 16.7303V17.2859H134.444V16.7303C135 16.7303 135.444 16.7303 135.777 16.6192C136.111 16.5081 136.333 16.397 136.444 16.1747C136.555 15.9525 136.666 15.6192 136.777 15.2859C136.889 14.9525 136.889 14.397 136.889 13.6192V4.95252L131.666 17.6192H131.333L125.666 4.17475V13.6192ZM148 15.9321C148.111 16.9321 148.667 17.4876 149.667 17.4876C150.334 17.4876 150.889 17.2654 151.223 16.821L150.889 16.2654C150.778 16.2654 150.667 16.3765 150.556 16.4876C150.445 16.5987 150.334 16.5987 150.223 16.5987C149.889 16.5987 149.667 16.2654 149.667 15.5987V11.5988C149.667 10.2655 149.445 9.37657 148.889 8.82102C148.334 8.26546 147.445 7.93213 146.223 7.93213C145.445 7.93213 144.667 8.04324 144 8.48768C143.334 8.93213 143 9.37657 143 10.0432C143 10.2655 143 10.4877 143.223 10.7099C143.445 10.821 143.667 10.9321 143.889 10.9321C144.111 10.9321 144.223 10.9321 144.445 10.7099C144.556 10.4877 144.667 10.2655 144.667 10.0432C144.667 9.70991 144.778 9.37657 145.111 9.15435C145.445 8.93213 145.778 8.82102 146.111 8.82102C146.778 8.82102 147.223 8.93213 147.445 9.37657C147.667 9.70991 147.778 10.4877 147.778 11.4877C147.442 11.5838 147.126 11.6591 146.823 11.7316C146.424 11.8268 146.045 11.9171 145.667 12.0432C145.568 12.0828 145.466 12.1224 145.361 12.1626L145.36 12.1631C144.88 12.3485 144.365 12.5473 144 12.821C143.556 13.0432 143.111 13.3765 142.889 13.821C142.556 14.2654 142.445 14.7099 142.445 15.2654C142.445 16.0432 142.667 16.4876 143.111 16.9321C143.556 17.2654 144.111 17.4876 144.778 17.4876C145.334 17.4876 145.889 17.3765 146.334 17.1543C146.889 16.9321 147.445 16.4876 148 15.9321ZM144.445 15.0432C144.445 13.821 145.556 12.9321 147.889 12.3765H148V15.1543C147.445 15.5987 147 15.9321 146.667 16.1543C146.334 16.2654 146 16.3765 145.667 16.3765C145.334 16.3765 145 16.2654 144.778 16.0432C144.556 15.821 144.445 15.4876 144.445 15.0432ZM160.334 10.4877C160.223 10.7099 159.889 10.821 159.556 10.821C159.334 10.821 159.112 10.7099 158.889 10.4877C158.667 10.2655 158.667 10.0432 158.667 9.82102C158.667 9.26546 158.445 8.93213 157.889 8.93213C157.556 8.93213 157.112 9.26546 156.667 9.82102C156.223 10.3766 156 11.1544 156 12.0432V13.4876C156 14.1543 156 14.7098 156.112 15.1543C156.112 15.4876 156.223 15.821 156.445 16.0432C156.556 16.2654 156.778 16.3765 157 16.4876C157.223 16.5987 157.556 16.5987 158 16.5987V17.1543H152.223V16.5987C152.667 16.5987 153 16.5987 153.223 16.4876C153.445 16.3765 153.667 16.2654 153.778 16.0432C153.889 15.821 154 15.4876 154.112 15.1543C154.223 14.7098 154.223 14.2654 154.223 13.4876V12.1543C154.223 11.4877 154.223 10.9321 154.112 10.4877C154.112 10.0432 154 9.82102 153.778 9.59879C153.667 9.37657 153.445 9.26546 153.223 9.15435C153 9.04324 152.667 9.04324 152.223 9.04324V8.5988L155.556 7.93213C155.621 7.99668 155.648 8.13625 155.681 8.30725L155.681 8.30738C155.705 8.43067 155.732 8.57029 155.778 8.70991C155.829 8.91374 155.857 9.09421 155.882 9.26202C155.913 9.4601 155.94 9.64056 156 9.82102C156.223 9.26546 156.667 8.82102 157.112 8.48768C157.667 8.15435 158.112 7.93213 158.667 7.93213C159.334 7.93213 159.778 8.15435 160.112 8.48768C160.445 8.82102 160.667 9.26546 160.667 9.59879C160.556 9.93213 160.445 10.2655 160.334 10.4877ZM165 17.2825C164.445 17.1714 163.889 17.0603 163.445 16.9492C163 16.8381 162.778 16.6158 162.778 16.6158C162.778 16.3936 162.778 16.2825 163 16.1714C163.111 16.0603 163.334 15.9492 163.667 15.8381C163.737 15.8149 163.801 15.7917 163.863 15.7695C164.098 15.6854 164.292 15.6158 164.556 15.6158C164.648 15.6158 164.759 15.5968 164.889 15.5744C165.073 15.5428 165.296 15.5047 165.556 15.5047C166.445 15.3936 167.223 14.9492 167.889 14.2825C168.556 13.6158 168.889 12.7269 168.889 11.8381C168.889 11.0603 168.556 10.3936 168.111 9.72694C168.334 9.39361 168.667 9.2825 168.889 9.2825C169.111 9.2825 169.223 9.2825 169.334 9.39361C169.334 9.46227 169.376 9.53093 169.435 9.62581C169.471 9.68447 169.513 9.75315 169.556 9.83805C169.556 10.0603 169.667 10.1714 169.778 10.2825C169.889 10.3936 170.111 10.3936 170.334 10.3936C170.445 10.3936 170.667 10.2825 170.778 10.1714C170.889 10.0603 171 9.83805 171 9.61583C171 9.24763 170.848 9.03195 170.669 8.77925C170.632 8.72693 170.594 8.67301 170.556 8.61583C170.334 8.2825 169.889 8.17139 169.445 8.17139C169.111 8.17139 168.778 8.2825 168.445 8.50472C168.111 8.61583 167.778 8.83805 167.556 9.17139C166.889 8.50472 166 8.17139 165 8.17139C164 8.17139 163.111 8.61583 162.334 9.2825C161.556 10.0603 161.223 10.8381 161.223 11.8381C161.223 12.5047 161.334 13.1714 161.778 13.7269C162.223 14.2825 162.667 14.7269 163.334 15.0603C162.667 15.2825 162.111 15.6158 161.778 15.9492C161.445 16.2825 161.223 16.7269 161.223 17.1714C161.223 17.8381 161.556 18.3936 162.223 18.8381C162.889 19.2825 163.778 19.5047 164.889 19.6158C166 19.7269 166.889 19.9492 167.445 20.1714C168.111 20.3936 168.334 20.838 168.334 21.3936C168.334 21.9492 168 22.5047 167.334 22.8381C166.667 23.1714 165.889 23.3936 165.111 23.3936C164.334 23.3936 163.556 23.1714 162.889 22.8381C162.223 22.5047 161.889 21.9492 161.889 21.3936C161.889 20.9492 162.111 20.3936 162.667 19.7269L162.223 19.3936C161.223 19.9492 160.667 20.6158 160.667 21.5047C160.667 22.2825 161.111 22.9492 161.889 23.5047C162.667 24.0603 163.778 24.2825 165.111 24.2825C166.445 24.2825 167.445 23.9492 168.334 23.2825C169.223 22.6158 169.667 21.838 169.667 20.7269C169.667 19.838 169.223 19.0603 168.556 18.3936C167.778 17.8381 166.667 17.3936 165 17.2825ZM165.111 8.83805C165.667 8.83805 166.111 9.06028 166.445 9.61583C166.778 10.0603 166.889 10.7269 166.889 11.6158C166.889 12.5047 166.778 13.0603 166.445 13.6158C166.111 14.1714 165.667 14.3936 165.111 14.3936C164.556 14.3936 164.111 14.1714 163.778 13.6158C163.445 13.0603 163.334 12.3936 163.334 11.6158C163.334 10.8381 163.445 10.1714 163.778 9.61583C164.111 9.06028 164.556 8.83805 165.111 8.83805ZM178.445 17.4876C177.445 17.4876 176.889 16.9321 176.667 15.9321C176.111 16.4876 175.556 16.9321 175 17.1543C174.556 17.3765 174 17.4876 173.445 17.4876C172.778 17.4876 172.222 17.2654 171.778 16.9321C171.334 16.4876 171.111 16.0432 171.111 15.2654C171.111 14.7099 171.222 14.2654 171.556 13.821C171.778 13.3765 172.222 13.0432 172.667 12.821C173.032 12.5473 173.547 12.3485 174.027 12.1631L174.028 12.1626C174.132 12.1224 174.235 12.0828 174.334 12.0432C174.712 11.9171 175.09 11.8268 175.489 11.7316L175.489 11.7315C175.793 11.6591 176.108 11.5838 176.445 11.4877C176.445 10.4877 176.334 9.70991 176.111 9.37657C175.889 8.93213 175.445 8.82102 174.778 8.82102C174.445 8.82102 174.111 8.93213 173.778 9.15435C173.445 9.37657 173.334 9.70991 173.334 10.0432C173.334 10.2655 173.222 10.4877 173.111 10.7099C172.889 10.9321 172.778 10.9321 172.556 10.9321C172.334 10.9321 172.111 10.821 171.889 10.7099C171.667 10.4877 171.667 10.2655 171.667 10.0432C171.667 9.37657 172 8.93213 172.667 8.48768C173.334 8.04324 174.111 7.93213 174.889 7.93213C176.111 7.93213 177 8.26546 177.556 8.82102C178.111 9.37657 178.334 10.2655 178.334 11.5988V15.5987C178.334 16.2654 178.556 16.5987 178.889 16.5987C179 16.5987 179.111 16.5987 179.222 16.4876C179.334 16.3765 179.445 16.2654 179.556 16.2654L179.889 16.821C179.667 17.2654 179.111 17.4876 178.445 17.4876ZM176.778 12.3765C174.445 12.9321 173.334 13.821 173.334 15.0432C173.334 15.4876 173.445 15.821 173.667 16.0432C173.889 16.2654 174.222 16.3765 174.556 16.3765C174.889 16.3765 175.222 16.2654 175.556 16.1543C175.889 15.9321 176.334 15.5987 176.889 15.1543V12.3765H176.778ZM188.333 10.821C188.667 10.821 189 10.7099 189.111 10.4877C189.265 10.3343 189.312 10.1279 189.363 9.90508C189.386 9.80518 189.41 9.70199 189.444 9.59879C189.444 9.26546 189.222 8.82102 188.889 8.48768C188.556 8.15435 188.111 7.93213 187.444 7.93213C186.889 7.93213 186.444 8.15435 185.889 8.48768C185.444 8.82102 185 9.26546 184.778 9.82102C184.718 9.64056 184.69 9.4601 184.66 9.26202C184.634 9.09421 184.607 8.91374 184.556 8.70991C184.509 8.57029 184.482 8.43068 184.458 8.30739C184.425 8.13633 184.398 7.9967 184.333 7.93213L181 8.5988V9.04324C181.444 9.04324 181.778 9.04324 182 9.15435C182.222 9.26546 182.444 9.37657 182.556 9.59879C182.778 9.82102 182.889 10.0432 182.889 10.4877C183 10.9321 183 11.4875 183 12.154V12.1543V13.4876V13.4879C183 14.2655 183 14.7099 182.889 15.1543C182.778 15.4876 182.667 15.821 182.556 16.0432C182.444 16.2654 182.222 16.3765 182 16.4876C181.778 16.5987 181.444 16.5987 181 16.5987V17.1543H186.778V16.5987C186.333 16.5987 186 16.5987 185.778 16.4876C185.556 16.3765 185.333 16.2654 185.222 16.0432C185 15.821 184.889 15.4876 184.889 15.1543C184.778 14.7098 184.778 14.1543 184.778 13.4876V12.0432C184.778 11.1544 185 10.3766 185.444 9.82102C185.889 9.26546 186.333 8.93213 186.667 8.93213C187.222 8.93213 187.444 9.26546 187.444 9.82102C187.444 10.0432 187.444 10.2655 187.667 10.4877C187.889 10.7099 188.111 10.821 188.333 10.821ZM191.999 13.0596C191.999 14.1707 192.333 14.9485 192.888 15.6151C193.444 16.2818 194.333 16.6151 195.444 16.6151C195.888 16.6151 196.333 16.504 196.888 16.2818C197.444 16.0596 197.888 15.7262 198.221 15.3929L198.666 15.9485C198.221 16.504 197.666 16.8373 196.888 17.1707C196.221 17.504 195.444 17.6151 194.777 17.6151C194.11 17.6151 193.444 17.504 192.888 17.2818C192.333 17.0596 191.777 16.7262 191.444 16.2818C190.999 15.8373 190.666 15.2818 190.444 14.7262C190.221 14.1707 190.11 13.504 190.11 12.8373C190.11 12.1707 190.221 11.504 190.555 10.9485C190.777 10.3929 191.221 9.83735 191.666 9.3929C192.11 8.94846 192.666 8.61513 193.221 8.3929C193.777 8.17068 194.333 8.05957 194.888 8.05957C195.888 8.05957 196.666 8.3929 197.444 9.05957C198.11 9.72624 198.444 10.504 198.444 11.3929C198.444 11.7262 198.444 11.9485 198.333 12.2818H192.221C191.999 12.504 191.999 12.7262 191.999 13.0596ZM196.444 11.1707C196.444 11.1247 196.463 11.0596 196.485 10.9833C196.517 10.8755 196.555 10.7453 196.555 10.6151C196.555 10.1707 196.444 9.83735 196.11 9.50401C195.777 9.17068 195.333 9.05957 194.666 9.05957C194.11 9.05957 193.666 9.28179 193.221 9.61513C192.777 9.94846 192.444 10.504 192.333 11.1707H196.444ZM199.11 8.7322V9.39887H200.444V14.7323C200.444 15.7323 200.666 16.51 201.11 16.9545C201.444 17.51 201.999 17.7323 202.777 17.7323C203.11 17.7323 203.666 17.6211 204.11 17.2878C204.666 16.9545 205.11 16.6211 205.444 16.1767L204.999 15.7323C204.333 16.2878 203.777 16.6212 203.333 16.6212C202.555 16.6212 202.221 16.0656 202.221 14.7323V9.39887H204.444V8.50998H202.221V5.62109H201.333C201.221 6.50998 200.999 7.17665 200.666 7.7322C200.333 8.17665 199.888 8.62109 199.11 8.7322ZM14.8882 40.0436C14.8327 39.8769 14.7771 39.738 14.7216 39.5991C14.666 39.4602 14.6105 39.3213 14.5549 39.1547C14.3327 38.8213 14.2216 38.7101 13.9994 38.4879C13.3327 39.1546 12.5549 39.7101 11.7771 40.1546C10.9994 40.4879 10.1105 40.7101 9.22157 40.7101C8.22157 40.7101 7.22157 40.4879 6.22157 40.0436C5.22157 39.5991 4.44379 39.0435 3.77713 38.2657C3.22157 37.599 2.5549 36.7102 2.22157 35.5991C1.77713 34.5991 1.66602 33.4879 1.66602 32.3768C1.66602 31.2657 1.88824 30.1546 2.22157 29.1546C2.66602 28.1546 3.22157 27.2657 3.88824 26.4879C4.55491 25.7101 5.44379 25.1546 6.33268 24.7101C7.33268 24.2657 8.22157 24.0435 9.33268 24.0435C10.2216 24.0435 10.9994 24.2657 11.8882 24.599C12.666 24.9323 13.4438 25.4879 14.1105 26.2657C14.2934 26.1742 14.401 26.0076 14.5573 25.7656C14.5909 25.7136 14.6267 25.6581 14.666 25.5991C14.8882 25.2658 14.9994 25.0435 14.9994 24.7101H15.5549V30.4879H14.9994C14.666 28.7102 13.9994 27.3768 12.9994 26.4879C11.9994 25.4879 10.8882 25.0436 9.4438 25.0436C8.4438 25.0436 7.66602 25.2657 6.88824 25.7101C6.22157 26.1546 5.55491 26.7101 5.11046 27.4879C4.77713 28.1546 4.44379 28.9323 4.22157 29.8212C3.99935 30.7101 3.88824 31.599 3.88824 32.3768C3.88824 33.2657 3.99935 34.0435 4.22157 34.9323C4.44379 35.8213 4.77713 36.599 5.22157 37.2658C5.66602 37.9325 6.22157 38.599 6.99935 39.0435C7.66602 39.4879 8.55491 39.7102 9.55491 39.7102C10.8882 39.7102 12.1105 39.2657 13.1105 38.2657C14.1105 37.2657 14.666 35.9323 15.1105 34.2657H15.666V40.0436H14.8882ZM22.9999 39.0569C23.111 40.0569 23.6666 40.6125 24.6666 40.6125C25.3332 40.6125 25.8888 40.3902 26.2221 39.8347L25.8888 39.3902C25.7777 39.3902 25.6666 39.5014 25.5554 39.6125C25.4443 39.7236 25.3332 39.7236 25.2221 39.7236C24.8888 39.7236 24.6666 39.3902 24.6666 38.7236V34.6125C24.6666 33.2791 24.4443 32.3902 23.8888 31.8347C23.3332 31.2791 22.4443 30.9458 21.2221 30.9458C20.4443 30.9458 19.6666 31.0569 18.9999 31.5014C18.3332 31.9458 17.9999 32.3902 17.9999 33.0569C17.9999 33.2791 17.9999 33.5014 18.2221 33.7236C18.4443 33.8347 18.6666 33.9458 18.8888 33.9458C19.111 33.9458 19.2221 33.9458 19.4443 33.7236C19.5554 33.5014 19.6666 33.2791 19.6666 33.0569C19.6666 32.7236 19.7777 32.3902 20.111 32.168C20.4443 31.9458 20.7777 31.8347 21.111 31.8347C21.7777 31.8347 22.2221 31.9458 22.4443 32.3902C22.6666 32.8347 22.7777 33.6125 22.7777 34.6125C22.4415 34.7085 22.1261 34.7838 21.8224 34.8563C21.4236 34.9515 21.0451 35.0419 20.6666 35.168C20.5672 35.2078 20.4643 35.2475 20.3598 35.2879L20.3596 35.2879C19.8796 35.4733 19.3648 35.6721 18.9999 35.9458C18.5554 36.2791 18.2221 36.6125 17.8888 37.0569C17.5554 37.5014 17.4443 37.9458 17.4443 38.5014C17.4443 39.168 17.6666 39.6125 18.111 40.0569C18.5554 40.3902 19.111 40.6125 19.7777 40.6125C20.3332 40.6125 20.8888 40.5014 21.3332 40.2791C21.8888 40.0569 22.4443 39.6125 22.9999 39.0569ZM19.4443 38.168C19.4443 36.9458 20.5554 36.0569 22.8888 35.5014H22.9999V38.2791C22.4443 38.7236 21.9999 39.0569 21.6666 39.2791C21.3332 39.3902 20.9999 39.5014 20.6666 39.5014C20.3332 39.5014 19.9999 39.3902 19.7777 39.168C19.5554 38.9458 19.4443 38.6125 19.4443 38.168ZM32.3336 31.7316C32.8891 31.3983 33.5558 31.1761 34.3336 31.1761C35.4447 31.1761 36.2224 31.5094 36.778 32.2872C37.3336 32.9538 37.5558 33.9538 37.5558 35.1761V36.8427V36.8428C37.5558 37.5094 37.5558 38.065 37.6669 38.5094C37.6669 38.8427 37.778 39.1761 38.0002 39.3983C38.1113 39.6205 38.3336 39.7316 38.5558 39.8427C38.778 39.9538 39.1113 39.9538 39.5558 39.9538V40.5094H33.778V39.8427C34.2224 39.8427 34.5558 39.8427 34.778 39.7316C35.0002 39.6205 35.2224 39.5094 35.3336 39.2872C35.4447 39.0649 35.5558 38.7316 35.6669 38.3983C35.778 37.9538 35.778 37.5094 35.778 36.7316V35.1761C35.778 34.2872 35.6669 33.6205 35.2224 33.0649C34.8891 32.6205 34.3336 32.2872 33.6669 32.2872C33.0002 32.2872 32.3336 32.5094 31.6669 33.0649C31.0002 33.6205 30.778 34.1761 30.778 34.9538V36.6205C30.778 37.2872 30.778 37.8427 30.8891 38.2872C30.8891 38.7316 31.0002 38.9538 31.1113 39.1761C31.2224 39.3983 31.4447 39.5094 31.6669 39.6205C31.8891 39.7316 32.2224 39.7316 32.6669 39.7316V40.2872H27.1113V39.8427C27.5558 39.8427 27.8891 39.8427 28.1113 39.7316C28.3336 39.6205 28.5558 39.5094 28.6669 39.2872C28.778 39.0649 28.8891 38.7316 29.0002 38.3983C29.1113 37.9538 29.1113 37.5094 29.1113 36.7316V35.3983C29.1113 34.7316 29.1113 34.1761 29.0002 33.7316C29.0002 33.2872 28.8891 33.0649 28.6669 32.8427C28.5558 32.6205 28.3336 32.5094 28.1113 32.3983C27.8891 32.2872 27.5558 32.2872 27.1113 32.2872V31.7316L30.4447 31.0649C30.5092 31.1295 30.5363 31.2691 30.5694 31.4402C30.5933 31.5635 30.6203 31.7031 30.6669 31.8427C30.7178 32.0466 30.7454 32.227 30.7711 32.3948C30.8014 32.5929 30.829 32.7734 30.8891 32.9538C31.3336 32.5094 31.778 32.0649 32.3336 31.7316ZM42.2224 36.168C42.2224 34.9458 42.4446 33.9458 42.8891 33.168C43.3335 32.3902 43.8892 31.9458 44.8892 31.7236C45.1114 31.7236 45.3335 31.7236 45.5557 31.9458L45.5559 31.9461C45.6669 32.1682 45.7781 32.3905 45.7781 32.8347C45.7781 33.168 45.8891 33.3902 46.1113 33.6125C46.2224 33.8347 46.5557 33.9458 46.7779 33.9458C47.2224 33.9458 47.4447 33.8347 47.6669 33.6125C47.7781 33.3902 47.8891 33.168 47.8891 32.8347C47.8891 32.2791 47.6669 31.8347 47.1114 31.5014C46.6669 31.168 45.8892 30.9458 44.8892 30.9458C44.3336 30.9458 43.8891 31.0569 43.3335 31.2791C42.7779 31.5014 42.3336 31.8347 41.8892 32.2791C41.4447 32.7236 41.0003 33.2791 40.7781 33.9458C40.4447 34.6125 40.3335 35.2791 40.3335 36.0569C40.3335 37.3902 40.7781 38.5014 41.5558 39.3902C42.3336 40.2791 43.4446 40.7236 44.7779 40.7236C45.4446 40.7236 46.1113 40.6125 46.7779 40.2791C47.3335 39.9458 48.0002 39.5014 48.4446 38.9458L48.0003 38.3902C47.5558 38.7236 47.1113 39.0569 46.6668 39.2791C46.2224 39.5014 45.7779 39.6125 45.3335 39.6125C44.3335 39.6125 43.5558 39.3902 43.0003 38.7236C42.4447 38.168 42.2224 37.2791 42.2224 36.168ZM50.8889 36.1733C50.8889 37.2844 51.2222 38.0622 51.7778 38.7289C52.3333 39.3956 53.2222 39.7289 54.3333 39.7289C54.7778 39.7289 55.2222 39.6177 55.7778 39.3954C56.3333 39.1732 56.7778 38.8399 57.1111 38.5066L57.5555 39.0621C57.1111 39.6177 56.5556 39.9511 55.7778 40.2844C55.1111 40.6178 54.3333 40.7288 53.6667 40.7288C53 40.7288 52.3333 40.6178 51.7778 40.3956C51.2222 40.1733 50.6667 39.8399 50.3333 39.3954C49.8889 38.951 49.5556 38.3956 49.3333 37.84C49.1111 37.2844 49 36.6178 49 35.9511C49 35.2844 49.1111 34.6177 49.4444 34.0621C49.6667 33.5066 50.1111 32.9511 50.5556 32.5067C51 32.0622 51.5556 31.7289 52.1111 31.5067C52.6667 31.2845 53.2222 31.1733 53.7778 31.1733C54.7778 31.1733 55.5556 31.5067 56.3333 32.1733C57 32.84 57.3333 33.6178 57.3333 34.5067C57.3333 34.84 57.3333 35.0622 57.2222 35.3956H51.1111C50.8889 35.6178 50.8889 35.84 50.8889 36.1733ZM55.2222 34.2844C55.2222 34.2384 55.2413 34.1733 55.2636 34.0971C55.2952 33.9892 55.3333 33.8591 55.3333 33.7289C55.3333 33.2845 55.2222 32.9511 54.8889 32.6178C54.5556 32.2844 54.1111 32.1733 53.4444 32.1733C52.8889 32.1733 52.4444 32.3956 52 32.7289C51.5555 33.1733 51.2222 33.6178 51.1111 34.2844H55.2222ZM65.7782 33.9538C66.1115 33.9538 66.4448 33.8427 66.5559 33.6205C66.667 33.3983 66.7781 33.0651 66.8892 32.7319L66.8892 32.7318L66.8893 32.7316C66.8893 32.3983 66.6671 31.9538 66.3337 31.6205C66.0004 31.2872 65.5559 31.0649 64.8893 31.0649C64.3337 31.0649 63.8893 31.2872 63.3337 31.6205C62.8893 31.9538 62.4448 32.3983 62.2226 32.9538C62.1624 32.7734 62.1349 32.5929 62.1046 32.3948C62.0789 32.227 62.0513 32.0465 62.0004 31.8427C61.9538 31.7031 61.9268 31.5635 61.9029 31.4402V31.4402C61.8698 31.2691 61.8427 31.1295 61.7782 31.0649L58.4448 31.7316V32.2872C58.8893 32.2872 59.2226 32.2872 59.4448 32.3983C59.667 32.5094 59.8893 32.6205 60.0004 32.8427C60.2226 33.0649 60.3337 33.2872 60.3337 33.7316C60.4448 34.1761 60.4448 34.7316 60.4448 35.3983V36.7316C60.4448 37.5094 60.4448 37.9538 60.3337 38.3983C60.2226 38.7316 60.1115 39.0649 60.0004 39.2872C59.8893 39.5094 59.667 39.6205 59.4448 39.7316C59.2226 39.8427 58.8893 39.8427 58.4448 39.8427V40.2872H64.2226V39.7316C63.7782 39.7316 63.4448 39.7316 63.2226 39.6205C63.0004 39.5094 62.7782 39.3983 62.667 39.176C62.4448 38.9538 62.3337 38.6205 62.3337 38.2872C62.2226 37.8427 62.2226 37.2872 62.2226 36.6205V35.1761C62.2226 34.2872 62.4448 33.5094 62.8893 32.9538C63.3337 32.3983 63.7782 32.0649 64.1115 32.0649C64.667 32.0649 64.8893 32.3983 64.8893 32.9538C64.8893 33.1761 64.8893 33.3983 65.1115 33.6205C65.3337 33.8427 65.5559 33.9538 65.7782 33.9538ZM76.4437 31.5029H77.666C78.3326 31.5029 78.8882 31.5028 79.2215 31.3918L79.2216 31.3918C79.5549 31.2807 79.8882 31.1696 80.1104 31.0585C80.3326 30.9474 80.4437 30.614 80.5548 30.2807C80.666 29.9473 80.666 29.5029 80.666 28.9474H81.1104V34.9474H80.5548C80.5548 34.3918 80.5548 33.9474 80.4437 33.614C80.3326 33.2806 80.2215 33.0585 79.9993 32.8363C79.9468 32.81 79.8944 32.7776 79.839 32.7434C79.6598 32.6326 79.4499 32.5029 79.1104 32.5029C78.7771 32.3918 78.2215 32.3917 77.5549 32.3917H76.3326V36.6139C76.3326 37.2806 76.3326 37.8362 76.4437 38.2806L76.4442 38.2818C76.5551 38.6148 76.6661 38.9477 76.7771 39.1696C76.8668 39.349 77.1012 39.4559 77.3052 39.5489C77.3539 39.5711 77.4009 39.5925 77.4437 39.6139C77.7771 39.7252 78.2215 39.7252 78.7771 39.7252V40.2807H71.8882V39.8363C72.4437 39.8363 72.8882 39.8363 73.2215 39.7252C73.5549 39.614 73.7771 39.5029 73.8882 39.2807C73.9993 39.0585 74.1104 38.7252 74.2215 38.3918C74.3326 37.9474 74.3326 37.5029 74.3326 36.7252V28.1696C74.3326 27.5029 74.3326 26.9474 74.2215 26.5029C74.1104 26.0585 73.9993 25.8363 73.8882 25.614C73.7984 25.4346 73.5638 25.3275 73.3597 25.2344C73.3111 25.2122 73.2643 25.1909 73.2215 25.1695C72.8885 25.0585 72.4446 25.0585 71.8899 25.0585H71.8882V24.5029H83.8882L84.1104 27.9473H83.5548L83.4437 27.3917C83.2215 26.6139 82.9993 26.0585 82.666 25.8363C82.3326 25.614 81.666 25.3918 80.5548 25.3918H76.3326V31.5029H76.4437ZM91.8879 39.3954C92.3324 38.951 92.7768 38.3956 92.999 37.84C93.2212 37.2844 93.3324 36.6178 93.4435 35.9511C93.4435 35.2844 93.2212 34.6177 92.999 34.0621C92.7768 33.5066 92.3324 32.9511 91.8879 32.5067C91.4435 32.0622 90.8879 31.7289 90.2212 31.5067C89.5546 31.2845 88.8879 31.1733 88.2212 31.1733C87.5546 31.1733 86.8879 31.2845 86.2212 31.5067C85.5546 31.7289 84.999 32.0622 84.5546 32.5067C84.1101 32.9511 83.6657 33.5066 83.4435 34.0621C83.1101 34.7288 82.999 35.2844 82.999 35.9511C82.999 36.6178 83.2212 37.2844 83.4435 37.84C83.6657 38.3956 84.1101 38.951 84.5546 39.3954C85.1101 39.8399 85.5546 40.1733 86.2212 40.3956C86.8879 40.6178 87.5546 40.7288 88.2212 40.7288C88.8879 40.7288 89.5546 40.6178 90.2212 40.3956C90.8879 40.1733 91.4435 39.8399 91.8879 39.3954ZM88.3324 32.0622C89.2212 32.0622 89.999 32.5067 90.5546 33.1733C91.1101 33.9511 91.3324 34.84 91.3324 35.9511C91.3324 37.0622 91.1101 38.0622 90.5546 38.7289C90.1101 39.5067 89.3324 39.84 88.3324 39.84C87.4435 39.84 86.6657 39.5067 86.1101 38.7289C85.5546 37.9511 85.3324 37.0622 85.3324 35.9511C85.3324 34.84 85.5546 33.84 86.1101 33.1733C86.5546 32.3956 87.3324 32.0622 88.3324 32.0622ZM102.444 40.8468C102.444 40.7912 102.416 40.7079 102.375 40.5829C102.333 40.4579 102.277 40.2912 102.222 40.069C102.166 39.9024 102.139 39.7358 102.111 39.5691L102.111 39.569L102.111 39.5689C102.083 39.4022 102.055 39.2356 102 39.069C101.631 39.4372 101.263 39.7291 100.832 40.0712L100.678 40.193L100.555 40.2912C99.9997 40.6246 99.333 40.8468 98.6663 40.8468C97.5552 40.8468 96.7775 40.5135 96.2219 39.7357C95.7775 39.069 95.4441 38.069 95.4441 36.8468V35.1801C95.4441 34.5135 95.4441 33.9579 95.333 33.5135C95.333 33.1801 95.2219 32.8468 94.9997 32.6246C94.8886 32.4023 94.6663 32.2912 94.4441 32.1801C94.2219 32.069 93.8886 32.069 93.333 32.069V31.5135H97.1108V36.6246C97.1108 37.5135 97.2219 38.1801 97.5552 38.7357C97.8886 39.1801 98.333 39.5135 98.9997 39.5135C99.2219 39.5135 99.5552 39.4023 99.8886 39.2912C100.222 39.1801 100.555 38.9579 100.777 38.7357C101.111 38.5135 101.333 38.1801 101.444 37.9579C101.666 37.6246 101.666 37.2912 101.666 36.8468V35.069V35.0689C101.666 34.4023 101.666 33.8468 101.555 33.4023C101.531 33.3049 101.512 33.2182 101.495 33.1398C101.433 32.8605 101.395 32.687 101.222 32.5135C101.111 32.2912 100.889 32.1801 100.666 32.069C100.444 31.9579 100.111 31.9579 99.5552 31.9579V31.4023H103.333V36.5135C103.333 37.1801 103.333 37.7357 103.444 38.1801C103.468 38.2776 103.487 38.3643 103.505 38.4427C103.566 38.722 103.604 38.8955 103.777 39.069C103.889 39.2912 104.111 39.4023 104.333 39.5135C104.555 39.6246 104.889 39.6246 105.444 39.6246V40.1801L102.444 40.8468ZM114 31.1761C113.222 31.1761 112.556 31.3983 112 31.7316C111.333 32.0649 110.889 32.5094 110.556 32.9538C110.495 32.7734 110.468 32.5931 110.438 32.3951L110.438 32.3949L110.438 32.3948L110.438 32.3947V32.3947C110.412 32.2269 110.384 32.0465 110.333 31.8427C110.287 31.7031 110.26 31.5635 110.236 31.4402C110.203 31.2691 110.176 31.1295 110.111 31.0649L106.778 31.7316V32.2872C107.222 32.2872 107.556 32.2872 107.778 32.3983C108 32.5094 108.222 32.6205 108.333 32.8427C108.556 33.0649 108.667 33.2872 108.667 33.7316C108.778 34.176 108.778 34.7315 108.778 35.3981V35.3983V36.7316V36.7318C108.778 37.5094 108.778 37.9539 108.667 38.3983C108.556 38.7316 108.444 39.0649 108.333 39.2872C108.222 39.5094 108 39.6205 107.778 39.7316C107.556 39.8427 107.222 39.8427 106.778 39.8427V40.2872H112.333V39.7316C111.889 39.7316 111.555 39.7316 111.333 39.6205C111.111 39.5094 110.889 39.3983 110.778 39.1761C110.667 38.9538 110.556 38.7316 110.556 38.2872C110.445 37.8428 110.445 37.2872 110.445 36.6206V36.6205V34.9538C110.445 34.1761 110.667 33.6205 111.333 33.0649C112 32.5094 112.667 32.2872 113.333 32.2872C114 32.2872 114.556 32.6205 114.889 33.0649C115.222 33.6205 115.444 34.2872 115.444 35.1761V36.7316C115.444 37.5094 115.444 37.9538 115.333 38.3983C115.222 38.7316 115.111 39.0649 115 39.2872C114.889 39.5094 114.667 39.6205 114.444 39.7316C114.222 39.8427 113.889 39.8427 113.444 39.8427V40.5094H119.222V39.9538C118.778 39.9538 118.444 39.9538 118.222 39.8427C118 39.7316 117.778 39.6205 117.667 39.3983C117.444 39.1761 117.333 38.8427 117.333 38.5094C117.222 38.065 117.222 37.5095 117.222 36.8429V36.8427V35.1761C117.222 33.9538 117 32.9538 116.444 32.2872C115.889 31.5094 115.111 31.1761 114 31.1761ZM126.999 28.3769C126.999 27.7102 126.999 27.1547 126.888 26.7102C126.888 26.3769 126.777 26.0435 126.555 25.8212C126.444 25.599 126.221 25.4879 125.999 25.3768C125.777 25.2657 125.444 25.2657 124.888 25.2657V24.7101L128.666 24.0435V36.4879C128.666 37.1546 128.666 37.7101 128.777 38.1546C128.801 38.252 128.82 38.3387 128.838 38.4171C128.899 38.6964 128.937 38.8699 129.11 39.0435C129.221 39.2655 129.443 39.3766 129.665 39.4878L129.666 39.488C129.888 39.599 130.221 39.599 130.664 39.599H130.666V40.1546L127.333 40.8213C127.333 40.7527 127.29 40.6415 127.231 40.4878L127.231 40.4877C127.195 40.3929 127.153 40.2818 127.11 40.1546C127.059 40.0017 127.032 39.8489 127.006 39.7067L127.006 39.7067C126.976 39.5389 126.948 39.386 126.888 39.2657C126.555 39.7101 126.11 40.1546 125.555 40.4879C124.999 40.8212 124.444 40.9323 123.777 40.9323C123.221 40.9323 122.666 40.8213 122.11 40.5991C121.555 40.3769 121.11 40.0435 120.666 39.599C120.221 39.1546 119.888 38.5991 119.666 38.0436C119.444 37.488 119.333 36.8213 119.333 36.1547C119.333 35.4879 119.444 34.9323 119.666 34.2657C119.888 33.7101 120.221 33.1546 120.666 32.7101C121.11 32.2657 121.555 31.9325 122.11 31.7102C122.666 31.488 123.221 31.3768 123.777 31.3768C124.999 31.3768 126.11 31.9323 126.888 32.9323V28.3769H126.999ZM126.999 34.2657C126.777 33.599 126.444 33.1546 125.999 32.7101C125.555 32.3768 124.999 32.1546 124.444 32.1546C123.444 32.1546 122.777 32.4879 122.333 33.1546C121.888 33.8212 121.555 34.7101 121.555 35.9323C121.555 37.0435 121.777 37.9323 122.333 38.7101C122.777 39.3768 123.555 39.8212 124.444 39.8212C124.999 39.8212 125.555 39.599 125.999 39.2657C126.444 38.9323 126.777 38.3768 126.999 37.7101V34.2657ZM136.999 39.0569C137.111 40.0569 137.666 40.6125 138.666 40.6125C139.333 40.6125 139.888 40.3902 140.222 39.8347L139.888 39.3902C139.777 39.3902 139.666 39.5014 139.555 39.6125C139.444 39.7236 139.333 39.7236 139.222 39.7236C138.888 39.7236 138.666 39.3902 138.666 38.7236V34.6125C138.666 33.2791 138.444 32.3902 137.888 31.8347C137.333 31.2791 136.444 30.9458 135.222 30.9458C134.444 30.9458 133.666 31.0569 132.999 31.5014C132.333 31.9458 131.999 32.3902 131.999 33.0569C131.999 33.2791 131.999 33.5014 132.222 33.7236C132.444 33.8347 132.666 33.9458 132.888 33.9458C133.111 33.9458 133.222 33.9458 133.444 33.7236L133.444 33.7234C133.555 33.5012 133.666 33.2791 133.666 33.0569C133.666 32.7236 133.777 32.3902 134.111 32.168C134.444 31.9458 134.777 31.8347 135.111 31.8347C135.777 31.8347 136.222 31.9458 136.444 32.3902C136.666 32.8347 136.777 33.6125 136.777 34.6125C136.441 34.7085 136.126 34.7838 135.822 34.8563C135.423 34.9515 135.045 35.0419 134.666 35.168C134.632 35.1815 134.598 35.1949 134.564 35.2084C134.518 35.2264 134.472 35.2444 134.425 35.2626L134.36 35.2876L134.359 35.2879C133.879 35.4733 133.364 35.6721 132.999 35.9458C132.555 36.2791 132.222 36.6125 131.888 37.0569C131.555 37.5014 131.444 37.9458 131.444 38.5014C131.444 39.168 131.666 39.6125 132.111 40.0569C132.555 40.3902 133.111 40.6125 133.777 40.6125C134.333 40.6125 134.888 40.5014 135.333 40.2791C135.888 40.0569 136.444 39.6125 136.999 39.0569ZM133.555 38.168C133.555 36.9458 134.666 36.0569 136.999 35.5014H137.111V38.2791C136.555 38.7236 136.111 39.0569 135.777 39.2791C135.444 39.3902 135.111 39.5014 134.777 39.5014C134.444 39.5014 134.111 39.3902 133.888 39.168C133.666 38.9458 133.555 38.6125 133.555 38.168ZM140.223 32.497V31.8303C141 31.7192 141.445 31.2748 141.778 30.8303C142.112 30.2748 142.334 29.6081 142.445 28.7192H143.334V31.6081H145.556V32.497H143.334V37.8303C143.334 39.1637 143.667 39.7192 144.445 39.7192C144.889 39.7192 145.445 39.3859 146.112 38.8303L146.556 39.2748C146.223 39.7192 145.778 40.0526 145.334 40.3859C144.889 40.7192 144.334 40.8303 144 40.8303C143.223 40.8303 142.667 40.6081 142.334 40.0526C141.889 39.6081 141.667 38.8303 141.667 37.8303V32.497H140.223ZM147.333 39.8268V40.2713H153.111V39.7157C152.666 39.7157 152.333 39.7157 152.111 39.6045L152.11 39.6042C151.888 39.4932 151.666 39.3822 151.555 39.1602C151.333 38.9379 151.222 38.6045 151.222 38.2711C151.111 37.8267 151.111 37.2711 151.111 36.6045V31.049L147.333 31.7157V32.2713H147.334C147.778 32.2713 148.111 32.2713 148.333 32.3823C148.555 32.4934 148.777 32.6046 148.889 32.8268C149.111 33.049 149.222 33.2713 149.222 33.7157C149.333 34.1601 149.333 34.7156 149.333 35.3821V35.3824V36.7157V36.716C149.333 37.4936 149.333 37.938 149.222 38.3824C149.111 38.7157 149 39.049 148.889 39.2713C148.777 39.4935 148.555 39.6046 148.333 39.7157C148.111 39.8268 147.777 39.8268 147.333 39.8268ZM150.222 28.4934C150.555 28.4934 150.777 28.3824 151 28.1602C151.222 27.9379 151.333 27.7157 151.333 27.2713C151.333 27.049 151.222 26.7157 151 26.4935C150.777 26.2713 150.555 26.1602 150.222 26.1602C149.889 26.1602 149.666 26.2713 149.444 26.4935C149.222 26.7157 149.111 26.9379 149.111 27.2713C149.111 27.6046 149.222 27.9379 149.444 28.1602C149.666 28.3824 149.889 28.4934 150.222 28.4934ZM163.222 37.84C163 38.3956 162.555 38.951 162.111 39.3954C161.667 39.8399 161.111 40.1733 160.444 40.3956C159.778 40.6178 159.111 40.7288 158.444 40.7288C157.778 40.7288 157.111 40.6178 156.444 40.3956C155.778 40.1733 155.333 39.8399 154.778 39.3954C154.333 38.951 153.889 38.3956 153.667 37.84C153.444 37.2844 153.222 36.6178 153.222 35.9511C153.222 35.2844 153.333 34.7288 153.667 34.0621C153.889 33.5066 154.333 32.9511 154.778 32.5067C155.222 32.0622 155.778 31.7289 156.444 31.5067C157.111 31.2845 157.778 31.1733 158.444 31.1733C159.111 31.1733 159.778 31.2845 160.444 31.5067C161.111 31.7289 161.667 32.0622 162.111 32.5067C162.555 32.9511 163 33.5066 163.222 34.0621C163.444 34.6177 163.667 35.2844 163.667 35.9511C163.556 36.6178 163.444 37.2844 163.222 37.84ZM160.778 33.1733C160.222 32.5067 159.444 32.0622 158.444 32.0622C157.444 32.0622 156.667 32.3956 156.222 33.1733C155.667 33.84 155.444 34.84 155.444 35.9511C155.444 37.0622 155.667 37.9511 156.222 38.7289C156.778 39.5067 157.556 39.84 158.444 39.84C159.444 39.84 160.222 39.5067 160.778 38.7289C161.333 38.0622 161.555 37.0622 161.555 35.9511C161.555 34.84 161.333 33.9511 160.778 33.1733ZM171.554 31.1761C170.777 31.1761 170.11 31.3983 169.554 31.7316C168.999 32.0649 168.443 32.5094 168.221 32.9538C168.161 32.7734 168.133 32.5929 168.103 32.3948C168.077 32.227 168.05 32.0466 167.999 31.8427C167.952 31.7031 167.925 31.5635 167.901 31.4402C167.868 31.2691 167.841 31.1295 167.777 31.0649L164.443 31.7316V32.2872C164.888 32.2872 165.221 32.2872 165.443 32.3983C165.666 32.5094 165.888 32.6205 165.999 32.8427C166.221 33.0649 166.332 33.2872 166.332 33.7316C166.443 34.1761 166.443 34.7316 166.443 35.3983V36.7316C166.443 37.5094 166.443 37.9538 166.332 38.3983C166.221 38.7316 166.11 39.0649 165.999 39.2872C165.888 39.5094 165.666 39.6205 165.443 39.7316C165.221 39.8427 164.888 39.8427 164.443 39.8427V40.2872H169.999V39.7316C169.554 39.7316 169.221 39.7316 168.999 39.6205C168.777 39.5094 168.554 39.3983 168.443 39.1761C168.332 38.9538 168.221 38.7316 168.221 38.2872C168.11 37.8428 168.11 37.2873 168.11 36.6208V36.6205V34.9538C168.11 34.1761 168.332 33.6205 168.999 33.0649C169.666 32.5094 170.332 32.2872 170.999 32.2872C171.666 32.2872 172.221 32.6205 172.554 33.0649C172.888 33.6205 173.11 34.2872 173.11 35.1761V36.7316C173.11 37.5094 173.11 37.9538 172.999 38.3983C172.888 38.7316 172.777 39.0649 172.666 39.2872C172.554 39.5094 172.332 39.6205 172.11 39.7316C171.888 39.8427 171.554 39.8427 171.11 39.8427V40.5094H176.777V39.9538C176.332 39.9538 175.999 39.9538 175.777 39.8427C175.554 39.7316 175.332 39.6205 175.221 39.3983C174.999 39.1761 174.888 38.8427 174.888 38.5094C174.777 38.065 174.777 37.5095 174.777 36.843V36.8427V35.1761C174.777 33.9538 174.554 32.9538 173.999 32.2872C173.443 31.5094 172.666 31.1761 171.554 31.1761Z" fill="white"/>
</svg>
